<svg width="295" height="255" viewBox="0 0 295 255" fill="none" xmlns="http://www.w3.org/2000/svg">
<path fill-rule="evenodd" clip-rule="evenodd" d="M51 192C145.441 192 222 115.441 222 21C222 -14.1861 211.373 -46.8901 193.153 -74.0772C171.23 -84.2945 146.781 -90 121 -90C26.5593 -90 -50 -13.4407 -50 81C-50 109.586 -42.9857 136.534 -30.5843 160.216C-24.4963 167.543 -17.808 174.353 -10.5949 180.571C8.51587 187.952 29.2853 192 51 192ZM-39.3054 148.778C-58.6523 121.068 -70 87.3591 -70 51C-70 -43.4407 6.55931 -120 101 -120C122.715 -120 143.484 -115.952 162.595 -108.571C172.794 -99.7782 181.945 -89.8018 189.832 -78.855C168.721 -87.9572 145.45 -93 121 -93C24.9025 -93 -53 -15.0975 -53 81C-53 105.043 -48.1234 127.948 -39.3054 148.778ZM195.177 -76.4421C188.121 -86.8617 179.966 -96.4758 170.877 -105.118C201.564 -91.3613 227.458 -68.8226 245.359 -40.6998C230.972 -55.3994 213.999 -67.5587 195.177 -76.4421ZM198.385 -71.5289C215.247 -44.7273 225 -13.0027 225 21C225 117.098 147.098 195 51 195C31.906 195 13.5303 191.924 -3.65871 186.242C25.2652 208.658 61.5745 222 101 222C195.441 222 272 145.441 272 51C272 22.414 264.986 -4.53366 252.584 -28.2158C237.727 -46.0957 219.295 -60.8991 198.385 -71.5289ZM261.305 -16.7778C270.123 4.05241 275 26.9567 275 51C275 147.098 197.098 225 101 225C57.7936 225 18.2653 209.252 -12.1582 183.183C-14.0661 182.439 -15.9576 181.663 -17.8321 180.855C13.2161 223.947 63.8319 252 121 252C215.441 252 292 175.441 292 81C292 44.6409 280.652 10.9322 261.305 -16.7778ZM-23.1773 178.442C-82.1755 150.597 -123 90.566 -123 21C-123 -75.0975 -45.0975 -153 51 -153C94.2064 -153 133.735 -137.252 164.158 -111.183C203.369 -95.9019 235.674 -66.8111 255.096 -29.8868C280.021 0.220627 295 38.861 295 81C295 177.098 217.098 255 121 255C61.007 255 8.10533 224.638 -23.1773 178.442ZM-26.3851 173.529C-81.9389 145.288 -120 87.5888 -120 21C-120 -73.4407 -43.4407 -150 51 -150C90.4256 -150 126.735 -136.658 155.659 -114.242C138.47 -119.924 120.094 -123 101 -123C4.90245 -123 -73 -45.0975 -73 51C-73 93.139 -58.0206 131.779 -33.0961 161.887C-31.0058 165.861 -28.7663 169.744 -26.3851 173.529ZM-21.1528 176.077C-21.9011 174.961 -22.6366 173.835 -23.3591 172.7C-21.8916 174.199 -20.3973 175.672 -18.8768 177.118C-19.6385 176.776 -20.3971 176.429 -21.1528 176.077Z" fill="url(#paint0_linear_102_275)"/>
<defs>
<linearGradient id="paint0_linear_102_275" x1="295" y1="-37.9971" x2="50.6636" y2="270.171" gradientUnits="userSpaceOnUse">
<stop stop-color="#CE261B"/>
<stop offset="0.532918" stop-color="#9B6CFF"/>
<stop offset="1" stop-color="#FFC397"/>
</linearGradient>
</defs>
</svg>
