<svg width="168" height="259" viewBox="0 0 168 259" fill="none" xmlns="http://www.w3.org/2000/svg">
<path fill-rule="evenodd" clip-rule="evenodd" d="M344.989 172.007C313.372 128.378 262 100 204 100C110.413 100 34.0822 173.886 30.1584 266.508C28.196 263.463 26.3277 260.351 24.5575 257.178C23.5305 249.598 23 241.861 23 234C23 139.559 99.5593 63 194 63C258.248 63 314.22 98.4323 343.443 150.822C344.383 157.76 344.907 164.831 344.989 172.007ZM344.971 177.182C314.14 132.376 262.501 103 204 103C110.622 103 34.7259 177.845 33.029 270.818C63.8602 315.624 115.499 345 174 345C267.378 345 343.274 270.155 344.971 177.182ZM33.0114 275.993C64.628 319.622 116 348 174 348C267.587 348 343.918 274.114 347.842 181.492C354.137 191.26 359.464 201.71 363.687 212.708C364.554 219.684 365 226.79 365 234C365 328.441 288.441 405 194 405C121.159 405 58.9561 359.457 34.3127 295.292C33.5262 288.96 33.0859 282.52 33.0114 275.993ZM30.0146 271.725C28.5851 269.623 27.2005 267.488 25.8621 265.321C27.0016 271.477 28.4708 277.517 30.2508 283.423C30.0843 280.303 30 277.161 30 274C30 273.24 30.0049 272.482 30.0146 271.725ZM31.381 296.028C26.7846 283.984 23.4877 271.299 21.6615 258.144C7.85812 233.206 0 204.521 0 174C0 77.9025 77.9025 0 174 0C261.905 0 334.585 65.1861 346.338 149.856C356.767 168.697 363.802 189.678 366.619 211.972C373.972 231.24 378 252.149 378 274C378 370.098 300.098 448 204 448C115.364 448 42.2073 381.725 31.381 296.028ZM36.3098 307.649C51.9401 385.976 121.077 445 204 445C298.441 445 375 368.441 375 274C375 256.816 372.465 240.224 367.749 224.577C367.916 227.697 368 230.839 368 234C368 330.098 290.098 408 194 408C124.227 408 64.0452 366.932 36.3098 307.649ZM361.69 200.351C358.724 185.489 353.832 171.322 347.285 158.121C347.758 163.351 348 168.647 348 174C348 174.76 347.995 175.518 347.985 176.275C353.164 183.89 357.754 191.937 361.69 200.351ZM194 60C256.604 60 311.486 93.0623 342.138 142.679C327.425 63.1963 257.742 3 174 3C79.5593 3 3 79.5593 3 174C3 201.252 9.37491 227.015 20.7148 249.879C20.2417 244.649 20 239.353 20 234C20 137.902 97.9025 60 194 60Z" fill="url(#paint0_linear_102_274)"/>
<defs>
<linearGradient id="paint0_linear_102_274" x1="378" y1="126.278" x2="102.649" y2="412.289" gradientUnits="userSpaceOnUse">
<stop stop-color="#CE261B"/>
<stop offset="0.532918" stop-color="#9B6CFF"/>
<stop offset="1" stop-color="#FFC397"/>
</linearGradient>
</defs>
</svg>
