<svg width="385" height="426" viewBox="0 0 385 426" fill="none" xmlns="http://www.w3.org/2000/svg">
<g clip-path="url(#clip0_1_132)">
<path d="M368.745 382H11.2908C11.2526 382 11.2148 381.992 11.1795 381.977C11.1442 381.962 11.1122 381.94 11.0852 381.912C11.0582 381.884 11.0368 381.851 11.0221 381.815C11.0075 381.778 11 381.739 11 381.7C11 381.66 11.0075 381.621 11.0221 381.584C11.0368 381.548 11.0582 381.515 11.0852 381.487C11.1122 381.459 11.1442 381.437 11.1795 381.422C11.2148 381.407 11.2526 381.399 11.2908 381.399H368.745C368.822 381.399 368.896 381.431 368.95 381.487C369.005 381.543 369.035 381.62 369.035 381.7C369.035 381.779 369.005 381.856 368.95 381.912C368.896 381.968 368.822 382 368.745 382H368.745Z" fill="#292A2E"/>
<g opacity="0.65">
<path d="M368.745 382H11.2908C11.2526 382 11.2148 381.992 11.1795 381.977C11.1442 381.962 11.1122 381.94 11.0852 381.912C11.0582 381.884 11.0368 381.851 11.0221 381.815C11.0075 381.778 11 381.739 11 381.7C11 381.66 11.0075 381.621 11.0221 381.584C11.0368 381.548 11.0582 381.515 11.0852 381.487C11.1122 381.459 11.1442 381.437 11.1795 381.422C11.2148 381.407 11.2526 381.399 11.2908 381.399H368.745C368.822 381.399 368.896 381.431 368.95 381.487C369.005 381.543 369.035 381.62 369.035 381.7C369.035 381.779 369.005 381.856 368.95 381.912C368.896 381.968 368.822 382 368.745 382H368.745Z" fill="#292A2E"/>
</g>
<path d="M36.177 381.471L35.3611 381.309L48.1134 250.344L48.9294 250.507L36.177 381.471Z" fill="#494949"/>
<path d="M83.6611 381.471L82.8451 381.309L95.5975 250.344L96.413 250.507L83.6611 381.471Z" fill="#494949"/>
<path d="M188.621 381.471L189.437 381.309L176.685 250.344L175.869 250.507L188.621 381.471Z" fill="#494949"/>
<path d="M141.138 381.471L141.953 381.309L129.201 250.344L128.385 250.507L141.138 381.471Z" fill="#494949"/>
<path d="M124.226 192.707L123.402 192.82L130.852 250.484L131.675 250.37L124.226 192.707Z" fill="#494949"/>
<path d="M38.7177 192.706L37.8941 192.82L45.3438 250.483L46.1674 250.369L38.7177 192.706Z" fill="#494949"/>
<path d="M131.604 246.203H47.9676C45.711 246.203 43.8817 248.093 43.8817 250.425V250.426C43.8817 252.758 45.711 254.649 47.9676 254.649H131.604C133.861 254.649 135.69 252.758 135.69 250.426V250.425C135.69 248.093 133.861 246.203 131.604 246.203Z" fill="#292A2E"/>
<path opacity="0.8" d="M131.604 246.203H47.9676C45.711 246.203 43.8817 248.093 43.8817 250.425V250.426C43.8817 252.758 45.711 254.649 47.9676 254.649H131.604C133.861 254.649 135.69 252.758 135.69 250.426V250.425C135.69 248.093 133.861 246.203 131.604 246.203Z" fill="white"/>
<path d="M131.603 255.078H47.9676C46.7812 255.066 45.6473 254.571 44.8124 253.7C43.9775 252.828 43.5091 251.652 43.5091 250.426C43.5091 249.2 43.9775 248.023 44.8124 247.152C45.6473 246.281 46.7812 245.785 47.9676 245.773H131.603C132.789 245.785 133.923 246.281 134.758 247.152C135.593 248.023 136.061 249.2 136.061 250.426C136.061 251.652 135.593 252.828 134.758 253.7C133.923 254.571 132.789 255.066 131.603 255.078ZM47.9676 246.632C47.0009 246.643 46.0772 247.047 45.3972 247.757C44.7172 248.468 44.3358 249.427 44.3358 250.426C44.3358 251.425 44.7172 252.384 45.3972 253.094C46.0772 253.804 47.0009 254.209 47.9676 254.219H131.603C132.569 254.209 133.493 253.804 134.173 253.094C134.853 252.384 135.234 251.425 135.234 250.426C135.234 249.427 134.853 248.468 134.173 247.757C133.493 247.047 132.569 246.643 131.603 246.632H47.9676Z" fill="#292A2E"/>
<path d="M177.508 246.203H93.8718C91.6152 246.203 89.7859 248.093 89.7859 250.425V250.426C89.7859 252.758 91.6152 254.649 93.8718 254.649H177.508C179.765 254.649 181.594 252.758 181.594 250.426V250.425C181.594 248.093 179.765 246.203 177.508 246.203Z" fill="white"/>
<path d="M177.509 255.078H93.8722C93.2774 255.084 92.6874 254.968 92.1362 254.737C91.585 254.506 91.0837 254.164 90.6611 253.731C90.2385 253.299 89.903 252.784 89.674 252.216C89.4451 251.649 89.3272 251.04 89.3272 250.426C89.3272 249.811 89.4451 249.202 89.674 248.635C89.903 248.068 90.2385 247.553 90.6611 247.12C91.0837 246.688 91.585 246.346 92.1362 246.115C92.6874 245.884 93.2774 245.768 93.8722 245.773H177.509C178.104 245.768 178.694 245.884 179.245 246.115C179.796 246.346 180.297 246.688 180.72 247.12C181.143 247.553 181.478 248.068 181.707 248.635C181.936 249.202 182.054 249.811 182.054 250.426C182.054 251.04 181.936 251.649 181.707 252.216C181.478 252.784 181.143 253.299 180.72 253.731C180.297 254.164 179.796 254.506 179.245 254.737C178.694 254.968 178.104 255.084 177.509 255.078ZM93.8722 246.632C93.3869 246.627 92.9053 246.721 92.4555 246.909C92.0056 247.098 91.5963 247.376 91.2513 247.729C90.9063 248.082 90.6324 248.502 90.4455 248.965C90.2585 249.427 90.1623 249.924 90.1623 250.426C90.1623 250.927 90.2585 251.424 90.4455 251.887C90.6324 252.35 90.9063 252.77 91.2513 253.122C91.5963 253.475 92.0056 253.754 92.4555 253.942C92.9053 254.13 93.3869 254.225 93.8722 254.219H177.509C177.994 254.225 178.476 254.13 178.925 253.942C179.375 253.754 179.785 253.475 180.13 253.122C180.475 252.77 180.749 252.35 180.935 251.887C181.122 251.424 181.219 250.927 181.219 250.426C181.219 249.924 181.122 249.427 180.935 248.965C180.749 248.502 180.475 248.082 180.13 247.729C179.785 247.376 179.375 247.098 178.925 246.909C178.476 246.721 177.994 246.627 177.509 246.632H93.8722Z" fill="#292A2E"/>
<path d="M119.644 192.762H38.5304C37.2043 192.762 35.9235 192.264 34.9271 191.359C33.9307 190.455 33.2868 189.207 33.1156 187.848L27.7502 145.265C27.6498 144.469 27.7149 143.66 27.9412 142.892C28.1674 142.124 28.5496 141.415 29.0621 140.812C29.5746 140.209 30.2058 139.726 30.9134 139.395C31.621 139.064 32.3887 138.892 33.1654 138.892H114.279C115.605 138.892 116.886 139.391 117.882 140.296C118.878 141.2 119.522 142.448 119.694 143.807L125.059 186.39C125.159 187.186 125.094 187.995 124.868 188.763C124.642 189.53 124.259 190.24 123.747 190.843C123.235 191.446 122.603 191.929 121.896 192.26C121.188 192.591 120.421 192.762 119.644 192.762Z" fill="#292A2E"/>
<path opacity="0.8" d="M119.644 192.762H38.5304C37.2043 192.762 35.9235 192.264 34.9271 191.359C33.9307 190.455 33.2868 189.207 33.1156 187.848L27.7502 145.265C27.6498 144.469 27.7149 143.66 27.9412 142.892C28.1674 142.124 28.5496 141.415 29.0621 140.812C29.5746 140.209 30.2058 139.726 30.9134 139.395C31.621 139.064 32.3887 138.892 33.1654 138.892H114.279C115.605 138.892 116.886 139.391 117.882 140.296C118.878 141.2 119.522 142.448 119.694 143.807L125.059 186.39C125.159 187.186 125.094 187.995 124.868 188.763C124.642 189.53 124.259 190.24 123.747 190.843C123.235 191.446 122.603 191.929 121.896 192.26C121.188 192.591 120.421 192.762 119.644 192.762Z" fill="white"/>
<path d="M119.644 193.192H38.5304C37.1044 193.188 35.728 192.651 34.6564 191.678C33.5849 190.706 32.891 189.365 32.7035 187.904L27.338 145.321C27.2301 144.465 27.3002 143.594 27.5436 142.768C27.787 141.942 28.1982 141.178 28.7497 140.529C29.3012 139.881 29.9803 139.361 30.7417 139.004C31.5031 138.648 32.3293 138.464 33.165 138.464H114.279C115.705 138.467 117.082 139.005 118.153 139.978C119.225 140.951 119.919 142.292 120.106 143.753L125.471 186.335C125.579 187.192 125.509 188.062 125.266 188.889C125.022 189.715 124.611 190.478 124.059 191.127C123.508 191.776 122.829 192.296 122.067 192.652C121.306 193.008 120.48 193.193 119.644 193.193V193.192ZM33.165 139.322C32.4475 139.322 31.7381 139.48 31.0844 139.786C30.4307 140.092 29.8477 140.538 29.3742 141.095C28.9007 141.653 28.5477 142.308 28.3387 143.017C28.1297 143.727 28.0696 144.474 28.1623 145.209L33.5273 187.792C33.6883 189.047 34.284 190.198 35.2041 191.033C36.1241 191.868 37.306 192.33 38.5304 192.333H119.644C120.362 192.333 121.071 192.175 121.725 191.869C122.379 191.563 122.962 191.116 123.436 190.559C123.909 190.002 124.262 189.346 124.471 188.637C124.68 187.927 124.74 187.18 124.647 186.444L119.282 143.862C119.121 142.607 118.525 141.456 117.605 140.621C116.685 139.786 115.503 139.325 114.279 139.322H33.165Z" fill="#292A2E"/>
<path d="M124.231 192.762H43.1173C41.7912 192.762 40.5103 192.264 39.5138 191.359C38.5173 190.455 37.8734 189.207 37.702 187.848L32.3366 145.265C32.2364 144.469 32.3016 143.66 32.5279 142.892C32.7542 142.124 33.1364 141.415 33.6489 140.812C34.1614 140.209 34.7925 139.726 35.5 139.395C36.2075 139.064 36.9752 138.893 37.7519 138.892H118.866C120.192 138.892 121.473 139.391 122.469 140.296C123.465 141.2 124.109 142.448 124.281 143.807L129.646 186.39C129.746 187.186 129.681 187.995 129.455 188.763C129.229 189.53 128.846 190.24 128.334 190.843C127.821 191.446 127.19 191.929 126.483 192.26C125.775 192.591 125.008 192.762 124.231 192.762Z" fill="white"/>
<path d="M124.231 193.192H43.1173C41.6913 193.188 40.3148 192.651 39.2432 191.678C38.1717 190.706 37.4778 189.365 37.2904 187.904L31.9249 145.321C31.817 144.465 31.8871 143.594 32.1305 142.768C32.3739 141.942 32.7851 141.178 33.3366 140.529C33.8881 139.881 34.5672 139.361 35.3286 139.004C36.09 138.648 36.9161 138.464 37.7519 138.464H118.866C120.292 138.467 121.668 139.005 122.74 139.978C123.812 140.95 124.505 142.292 124.693 143.753L130.058 186.335C130.166 187.192 130.096 188.062 129.852 188.889C129.609 189.715 129.198 190.478 128.646 191.127C128.095 191.776 127.416 192.296 126.654 192.652C125.893 193.008 125.067 193.193 124.231 193.193V193.192ZM37.7519 139.322C37.0343 139.322 36.325 139.48 35.6713 139.786C35.0175 140.092 34.4345 140.538 33.961 141.095C33.4874 141.653 33.1344 142.308 32.9253 143.017C32.7163 143.727 32.6561 144.474 32.7488 145.209L38.1142 187.792C38.275 189.047 38.8707 190.198 39.7908 191.033C40.7109 191.868 41.8928 192.33 43.1173 192.333H124.231C124.949 192.333 125.658 192.175 126.312 191.869C126.966 191.563 127.549 191.117 128.023 190.559C128.496 190.002 128.849 189.346 129.058 188.637C129.267 187.927 129.327 187.18 129.235 186.444L123.869 143.862C123.708 142.607 123.113 141.455 122.193 140.62C121.272 139.785 120.09 139.323 118.866 139.321L37.7519 139.322Z" fill="#292A2E"/>
<path d="M238.629 359.568C238.629 359.568 240.857 371.501 251.667 372.166C262.478 372.83 260.134 381.732 260.134 381.732H218.821V360.4L238.629 359.568Z" fill="black"/>
<path d="M160.032 352.034C160.032 352.034 156.934 363.757 166.351 369.286C175.768 374.815 169.863 381.732 169.863 381.732L132.792 362.883L141.903 343.742L160.032 352.034Z" fill="black"/>
<path d="M126.766 73.9764C126.766 73.9764 132.156 69.7718 133.492 60.0934C134.526 52.5996 127.837 57.4542 127.837 57.4542C127.837 57.4542 128.531 52.0513 124.722 52.5871C120.912 53.1229 118.781 58.7998 118.781 58.7998" fill="#0C0C0C"/>
<path d="M105.034 53.2195C105.034 53.2195 86.1338 55.3139 92.9661 81.7823L94.6387 81.8978L98.0337 82.1331" fill="#0C0C0C"/>
<path d="M123.601 109.425C123.518 109.413 122.595 125.225 104.82 123.847C92.5149 122.895 88.1275 109.402 87.8454 109.402C89.1723 109.111 90.8116 108.669 91.4635 108.517C92.8835 108.176 94.1696 107.396 95.1505 106.282C96.1314 105.167 96.7608 103.771 96.9548 102.277C97.315 100.036 96.7055 88.5691 96.892 86.3012L115.781 90.6587C115.517 95.4481 113.67 106.551 120.143 108.517C121.222 108.842 122.382 109.14 123.601 109.425Z" fill="#E98862"/>
<path opacity="0.52" d="M116.046 103.979C115.751 102.993 115.56 101.978 115.478 100.949C115.271 98.6027 115.313 96.2396 115.603 93.9024C111.763 93.3669 108.147 91.7291 105.163 89.1753C104.812 90.514 102.884 96.3634 103.418 97.636C104.426 100.041 109.169 103.979 116.046 103.979Z" fill="#0C0C0C"/>
<path d="M112.148 100.849C104.696 100.158 95.7766 95.2926 95.6482 84.8384L95.5319 75.4061C95.4035 64.9519 100.612 56.4075 110.136 56.2825C119.66 56.1571 126.884 64.5384 127.012 74.9922L127.063 79.168C127.057 80.6022 126.956 82.0343 126.761 83.4542C126.272 87.211 125.514 92.9226 123.048 96.7868C120.718 100.434 116.908 101.291 112.148 100.849Z" fill="#E98862"/>
<path d="M115.605 91.2937C117.143 91.3657 118.676 91.0632 120.079 90.4105C120.108 90.3977 120.135 90.3791 120.157 90.3558C120.179 90.3325 120.196 90.305 120.208 90.2747C120.22 90.2444 120.226 90.2121 120.225 90.1795C120.225 90.1469 120.219 90.1146 120.206 90.0846C120.194 90.0546 120.176 90.0275 120.153 90.0046C120.131 89.9818 120.104 89.9638 120.075 89.9517C120.045 89.9395 120.014 89.9334 119.983 89.9338C119.951 89.9341 119.92 89.9409 119.891 89.9537C116.866 91.2868 114.12 91.0915 111.949 89.3891C111.905 89.3533 111.859 89.3199 111.812 89.2891C111.758 89.2629 111.696 89.2589 111.638 89.2777C111.581 89.2965 111.533 89.3368 111.503 89.3907C111.473 89.4446 111.463 89.5081 111.476 89.5688C111.489 89.6294 111.524 89.6828 111.573 89.7184C111.591 89.7296 111.619 89.7523 111.656 89.7837C112.798 90.6821 114.173 91.2079 115.605 91.2937Z" fill="#0C0C0C"/>
<path d="M115.533 93.6487C115.811 93.6666 116.09 93.6597 116.367 93.6281C116.43 93.6211 116.488 93.5884 116.528 93.5372C116.568 93.486 116.587 93.4205 116.58 93.355C116.573 93.2895 116.542 93.2295 116.492 93.1881C116.443 93.1467 116.379 93.1274 116.316 93.1343C114.651 93.3172 113.857 92.5289 113.823 92.495C113.778 92.4505 113.717 92.4261 113.655 92.427C113.592 92.4279 113.532 92.454 113.488 92.4997C113.444 92.5454 113.418 92.6072 113.418 92.6719C113.417 92.7366 113.44 92.7991 113.483 92.8462C114.056 93.3502 114.781 93.6337 115.533 93.6487Z" fill="#0C0C0C"/>
<path d="M123.867 81.1783C124.515 81.1783 125.04 80.6354 125.04 79.9658C125.04 79.2961 124.515 78.7533 123.867 78.7533C123.219 78.7533 122.693 79.2961 122.693 79.9658C122.693 80.6354 123.219 81.1783 123.867 81.1783Z" fill="#0C0C0C"/>
<path d="M112.405 80.435C113.053 80.435 113.579 79.8922 113.579 79.2226C113.579 78.5529 113.053 78.0101 112.405 78.0101C111.758 78.0101 111.232 78.5529 111.232 79.2226C111.232 79.8922 111.758 80.435 112.405 80.435Z" fill="#0C0C0C"/>
<path d="M96.2788 88.0156C93.3845 88.0538 90.999 84.8844 90.9612 81.8931C90.9234 78.9019 93.2503 77.2218 96.1447 77.1836L97.6606 79.1681L98.7665 87.983L96.2788 88.0156Z" fill="#E98862"/>
<path d="M99.1566 83.2091C99.1566 83.2091 100.134 68.4167 104.474 67.5035C107.365 66.8951 114.375 71.1324 120.867 69.8525C123.708 69.2943 126.405 70.0195 126.679 71.4059C126.787 71.955 128.557 64.064 124.109 58.0772C120.567 53.3114 108.977 51.9633 103.704 53.5261C89.1046 57.8548 95.5473 77.8349 95.5473 77.8349L96.1983 82.9343L99.1566 83.2091Z" fill="#0C0C0C"/>
<path d="M117.353 87.8027C117.359 87.8031 117.365 87.8031 117.372 87.8027C118.304 87.7928 119.868 87.6691 119.861 86.9478C119.855 86.3502 118.21 79.9173 118.022 79.1857C118.001 79.1286 117.961 79.0816 117.908 79.0537C117.856 79.0259 117.795 79.0191 117.738 79.0348C117.681 79.0505 117.632 79.0875 117.6 79.1386C117.568 79.1897 117.555 79.2513 117.565 79.3115C118.296 82.1606 119.384 86.5468 119.389 86.9539C119.298 87.1256 118.335 87.302 117.369 87.3124C117.308 87.3137 117.25 87.3392 117.207 87.3835C117.164 87.4278 117.138 87.4876 117.137 87.5506C117.135 87.6135 117.157 87.6748 117.197 87.7217C117.238 87.7686 117.294 87.7976 117.355 87.8027H117.353Z" fill="#0C0C0C"/>
<path d="M120.537 73.3916C121.517 73.1128 122.552 73.1128 123.532 73.3916C124.014 73.5253 124.473 73.7332 124.895 74.0081C125.312 74.2773 125.694 74.5999 126.033 74.9682C126.098 75.0331 126.135 75.1218 126.138 75.2151C126.14 75.3085 126.107 75.3991 126.046 75.4676C125.984 75.5361 125.899 75.577 125.809 75.5815C125.719 75.5861 125.63 75.5539 125.563 75.492L125.542 75.4731C125.228 75.1731 124.879 74.915 124.503 74.705C124.134 74.4961 123.737 74.3463 123.324 74.2606C122.513 74.0843 121.671 74.1328 120.883 74.4014L120.85 74.4134C120.72 74.4609 120.577 74.4531 120.452 74.3917C120.328 74.3303 120.232 74.2204 120.186 74.0861C120.141 73.9518 120.148 73.8041 120.207 73.6755C120.267 73.547 120.373 73.4481 120.503 73.4006L120.537 73.3916Z" fill="#0C0C0C"/>
<path d="M113.596 74C112.85 73.6254 112.021 73.4611 111.194 73.5238C110.775 73.5521 110.361 73.6459 109.969 73.8021C109.57 73.9587 109.191 74.1664 108.842 74.4203L108.82 74.4358C108.745 74.4854 108.654 74.5033 108.567 74.4857C108.48 74.4682 108.402 74.4165 108.351 74.3414C108.299 74.2664 108.278 74.1737 108.291 74.0827C108.304 73.9917 108.35 73.9093 108.42 73.8527C108.803 73.5344 109.224 73.2673 109.672 73.0576C110.125 72.8435 110.607 72.7008 111.102 72.6342C111.597 72.5623 112.099 72.561 112.595 72.6304C113.103 72.6957 113.6 72.8355 114.071 73.0456C114.198 73.1025 114.297 73.2091 114.348 73.342C114.399 73.4748 114.396 73.623 114.341 73.754C114.286 73.8849 114.183 73.9879 114.054 74.0402C113.926 74.0926 113.782 74.09 113.656 74.033C113.646 74.0288 113.636 74.024 113.627 74.0189L113.596 74Z" fill="#0C0C0C"/>
<path d="M119.142 63.2083C121.284 62.7457 122.487 59.7289 121.828 56.4701C121.17 53.2113 118.899 50.9445 116.756 51.4071C114.614 51.8696 113.411 54.8864 114.07 58.1453C114.729 61.4041 117 63.6709 119.142 63.2083Z" fill="#0C0C0C"/>
<path d="M137.072 348.722L168.334 246.799H111.668C100.285 246.799 95.5394 236.823 95.5394 225.06C95.5394 213.297 106.73 202.985 118.112 202.985H194.59C201.533 202.985 209.317 207.373 213.128 213.371C216.938 219.369 215.908 228.663 213.147 235.246L163.087 360.902" fill="#262626"/>
<path opacity="0.8" d="M137.072 348.722L168.334 246.799H111.668C100.285 246.799 95.5394 236.823 95.5394 225.06C95.5394 213.297 106.73 202.985 118.112 202.985H194.59C201.533 202.985 209.317 207.373 213.128 213.371C216.938 219.369 215.908 228.663 213.147 235.246L163.087 360.902" fill="#0A0A0A"/>
<path d="M216.445 370.65L164.173 246.799L95.5385 246.794C79.4564 245.491 72.091 236.383 72.3253 224.622C72.5563 213.01 78.2454 201.541 89.4303 201.541H181.937C190.213 201.717 196.724 211.168 199.794 219.112L243.249 363.067" fill="#262626"/>
<path d="M67.6442 201.683C67.6442 201.683 64.5961 222.226 69.4276 233.647C75.4594 247.906 98.0711 246.795 98.0711 246.795L96.7969 201.542L67.6442 201.683Z" fill="#262626"/>
<path d="M201.761 201.279L153.279 190.897C151.258 190.464 149.376 189.512 147.807 188.128C146.237 186.745 145.03 184.974 144.298 182.981L125.23 131.05C124.649 129.491 124.372 127.829 124.415 126.16C124.457 124.49 124.819 122.846 125.478 121.321C126.137 119.797 127.082 118.421 128.257 117.275C129.432 116.129 130.815 115.233 132.325 114.641C133.836 114.048 135.445 113.77 137.061 113.822C138.676 113.874 140.265 114.256 141.737 114.944C143.209 115.633 144.535 116.616 145.639 117.836C146.743 119.056 147.602 120.489 148.168 122.053L164.849 167.478L206.74 176.449C206.74 176.449 202.601 201.459 201.761 201.279Z" fill="#5939F1"/>
<path d="M145.686 144.239C145.126 151.037 141.158 193.447 140.618 201.82H67.6761C67.257 194.268 65.375 161.246 63.7859 146.477C62.2688 132.385 60.1421 125.973 61.8895 121.593C64.9712 113.87 74.7806 110.42 81.4235 109.491C85.4795 108.924 91.5802 108.517 91.5802 108.517C91.5802 108.517 92.097 119.316 104.414 119.917C121.181 120.733 120.061 108.517 120.144 108.517C122.86 108.517 137.646 110.558 141.343 113.048C146.565 116.566 148.108 121.359 148.169 125.763C148.239 130.834 146.321 136.528 145.686 144.239Z" fill="#5939F1"/>
<path d="M142.819 178.891H142.802C142.775 178.888 142.748 178.88 142.724 178.867C142.7 178.855 142.678 178.837 142.661 178.815C142.643 178.794 142.63 178.769 142.621 178.742C142.613 178.715 142.61 178.687 142.612 178.659L144.506 155.15C144.507 155.122 144.514 155.094 144.527 155.069C144.539 155.043 144.556 155.021 144.577 155.002C144.598 154.984 144.622 154.97 144.648 154.962C144.675 154.954 144.702 154.951 144.73 154.954C144.757 154.956 144.783 154.964 144.808 154.977C144.832 154.99 144.853 155.008 144.871 155.029C144.889 155.051 144.902 155.076 144.91 155.103C144.919 155.129 144.922 155.158 144.92 155.186L143.026 178.694C143.021 178.748 142.998 178.798 142.96 178.834C142.921 178.87 142.871 178.89 142.819 178.891Z" fill="#0C0C0C"/>
<path d="M154.546 197.158L170.551 146.313C170.832 145.419 171.379 144.641 172.115 144.089C172.851 143.537 173.736 143.239 174.646 143.239H239.85C240.53 143.239 241.2 143.405 241.805 143.724C242.411 144.043 242.935 144.506 243.334 145.074C243.734 145.643 243.997 146.301 244.103 146.995C244.209 147.688 244.155 148.398 243.945 149.066L227.94 199.911C227.659 200.804 227.112 201.583 226.376 202.135C225.64 202.687 224.755 202.985 223.845 202.985H158.641C157.961 202.985 157.291 202.818 156.686 202.5C156.08 202.181 155.556 201.718 155.157 201.15C154.757 200.581 154.494 199.923 154.388 199.229C154.282 198.536 154.336 197.826 154.546 197.158Z" fill="#292A2E"/>
<path opacity="0.2" d="M154.546 197.158L170.551 146.313C170.832 145.419 171.379 144.641 172.115 144.089C172.851 143.537 173.736 143.239 174.646 143.239H239.85C240.53 143.239 241.2 143.405 241.805 143.724C242.411 144.043 242.935 144.506 243.334 145.074C243.734 145.643 243.997 146.301 244.103 146.995C244.209 147.688 244.155 148.398 243.945 149.066L227.94 199.911C227.659 200.804 227.112 201.583 226.376 202.135C225.64 202.687 224.755 202.985 223.845 202.985H158.641C157.961 202.985 157.291 202.818 156.686 202.5C156.08 202.181 155.556 201.718 155.157 201.15C154.757 200.581 154.494 199.923 154.388 199.229C154.282 198.536 154.336 197.826 154.546 197.158Z" fill="white"/>
<path d="M167.602 198.862H123.954C122.866 198.862 121.985 199.773 121.985 200.897V200.95C121.985 202.074 122.866 202.985 123.954 202.985H167.602C168.689 202.985 169.571 202.074 169.571 200.95V200.897C169.571 199.773 168.689 198.862 167.602 198.862Z" fill="#292A2E"/>
<path opacity="0.2" d="M167.602 198.862H123.954C122.866 198.862 121.985 199.773 121.985 200.897V200.95C121.985 202.074 122.866 202.985 123.954 202.985H167.602C168.689 202.985 169.571 202.074 169.571 200.95V200.897C169.571 199.773 168.689 198.862 167.602 198.862Z" fill="white"/>
<path d="M199.246 182.66C203.022 182.66 206.084 179.496 206.084 175.592C206.084 171.689 203.022 168.525 199.246 168.525C195.469 168.525 192.407 171.689 192.407 175.592C192.407 179.496 195.469 182.66 199.246 182.66Z" fill="white"/>
<path d="M146.347 134.762H129.009V156.737H146.347V134.762Z" fill="white"/>
<path d="M129.009 153.087C127.604 153.087 126.231 152.657 125.064 151.85C123.896 151.044 122.986 149.898 122.449 148.557C121.911 147.216 121.771 145.741 122.045 144.318C122.319 142.894 122.995 141.587 123.988 140.56C124.981 139.534 126.246 138.835 127.623 138.552C129.001 138.269 130.428 138.414 131.726 138.97C133.023 139.525 134.132 140.466 134.912 141.672C135.692 142.879 136.109 144.298 136.109 145.749C136.107 147.695 135.358 149.56 134.027 150.936C132.696 152.311 130.891 153.085 129.009 153.087ZM129.009 141.417C128.179 141.417 127.369 141.671 126.679 142.147C125.99 142.623 125.453 143.3 125.135 144.092C124.818 144.883 124.735 145.755 124.897 146.595C125.059 147.435 125.458 148.207 126.044 148.813C126.631 149.419 127.378 149.832 128.191 149.999C129.004 150.166 129.847 150.08 130.613 149.752C131.379 149.424 132.034 148.869 132.494 148.156C132.955 147.444 133.201 146.606 133.201 145.749C133.2 144.6 132.758 143.499 131.972 142.687C131.186 141.875 130.12 141.418 129.009 141.417Z" fill="white"/>
<path d="M130.009 149.005C129.85 148.58 129.553 148.227 129.168 148.007C128.783 147.786 128.336 147.712 127.903 147.799C127.912 147.778 127.916 147.756 127.916 147.734L128.498 147.465C128.905 147.286 129.241 146.967 129.447 146.562C129.653 146.157 129.717 145.691 129.628 145.243C129.567 144.963 129.447 144.7 129.276 144.474C129.105 144.248 128.887 144.064 128.639 143.935C128.391 143.807 128.118 143.737 127.84 143.73C127.563 143.723 127.287 143.781 127.034 143.897L125.662 144.532C125.662 144.526 125.662 144.52 125.659 144.515C125.653 144.503 125.647 144.493 125.639 144.483C125.977 144.22 126.219 143.846 126.325 143.422C126.431 142.999 126.395 142.551 126.223 142.151C125.842 141.086 124.491 141.001 123.599 141.413L120.012 142.908L121.094 141.773C121.434 141.403 121.624 140.914 121.628 140.404C121.631 139.895 121.448 139.403 121.114 139.028C120.934 138.84 120.72 138.693 120.484 138.594C120.248 138.495 119.995 138.447 119.74 138.452C119.485 138.458 119.235 138.517 119.003 138.626C118.771 138.735 118.563 138.892 118.392 139.087L105.637 153.482L110 157.824C111.354 159.172 113.067 160.072 114.92 160.408C116.772 160.743 118.68 160.499 120.397 159.707L128.171 156.105C128.579 155.926 128.914 155.607 129.12 155.202C129.326 154.797 129.39 154.331 129.301 153.883C129.213 153.48 129.003 153.117 128.701 152.847C128.399 152.577 128.022 152.413 127.624 152.38C127.628 152.358 127.628 152.335 127.624 152.312C127.62 152.29 127.611 152.269 127.599 152.25C127.587 152.231 127.571 152.215 127.553 152.202C127.534 152.19 127.514 152.181 127.492 152.177L128.928 151.515C129.382 151.316 129.746 150.946 129.947 150.48C130.148 150.014 130.17 149.487 130.009 149.005Z" fill="#E98862"/>
<path opacity="0.2" d="M123.068 145.75C123.027 145.75 122.987 145.735 122.955 145.708C122.924 145.681 122.902 145.643 122.894 145.602C122.887 145.56 122.893 145.517 122.913 145.479C122.933 145.442 122.965 145.413 123.003 145.398L125.43 144.41C125.451 144.402 125.474 144.397 125.497 144.398C125.52 144.398 125.543 144.403 125.564 144.413C125.586 144.422 125.605 144.436 125.621 144.453C125.637 144.471 125.65 144.491 125.658 144.513C125.667 144.535 125.671 144.559 125.67 144.583C125.67 144.607 125.665 144.63 125.656 144.652C125.646 144.674 125.633 144.694 125.617 144.711C125.6 144.727 125.58 144.74 125.559 144.749L123.133 145.737C123.112 145.745 123.09 145.749 123.068 145.75Z" fill="#0C0C0C"/>
<path opacity="0.2" d="M124.422 149.295C124.381 149.295 124.342 149.28 124.31 149.253C124.279 149.226 124.257 149.189 124.25 149.148C124.242 149.106 124.248 149.063 124.268 149.026C124.287 148.989 124.319 148.96 124.356 148.944L127.675 147.565C127.718 147.549 127.765 147.552 127.806 147.571C127.847 147.59 127.88 147.625 127.897 147.669C127.914 147.712 127.914 147.761 127.897 147.804C127.88 147.848 127.848 147.883 127.806 147.902L124.488 149.282C124.467 149.291 124.445 149.295 124.422 149.295Z" fill="#0C0C0C"/>
<path opacity="0.2" d="M125.869 153.145C125.828 153.145 125.788 153.13 125.757 153.102C125.725 153.075 125.703 153.037 125.696 152.995C125.689 152.953 125.696 152.91 125.716 152.873C125.737 152.836 125.769 152.807 125.808 152.792L127.39 152.179C127.433 152.162 127.482 152.163 127.524 152.183C127.567 152.203 127.6 152.24 127.617 152.285C127.633 152.33 127.632 152.38 127.613 152.424C127.593 152.468 127.558 152.502 127.514 152.52L125.932 153.133C125.912 153.141 125.891 153.145 125.869 153.145Z" fill="#0C0C0C"/>
<path d="M133.698 120.783C133.621 120.784 133.546 120.762 133.481 120.721C133.415 120.679 133.362 120.62 133.327 120.55C132.382 118.644 131.205 116.271 131.337 113.784C131.443 111.806 132.34 110.049 133.207 108.352C133.767 107.326 134.244 106.254 134.634 105.147C135.11 103.62 135.229 101.998 134.984 100.413C134.739 98.8291 134.135 97.327 133.222 96.0294C133.187 95.9842 133.162 95.9324 133.148 95.877C133.133 95.8216 133.13 95.7638 133.137 95.707C133.145 95.6501 133.163 95.5954 133.191 95.546C133.22 95.4967 133.257 95.4537 133.302 95.4196C133.347 95.3855 133.397 95.361 133.451 95.3475C133.505 95.3341 133.561 95.3319 133.616 95.3412C133.671 95.3505 133.723 95.3711 133.77 95.4017C133.817 95.4323 133.858 95.4723 133.89 95.5193C134.881 96.9275 135.538 98.5578 135.805 100.278C136.072 101.997 135.942 103.758 135.427 105.416C135.023 106.569 134.528 107.685 133.945 108.753C133.081 110.444 132.265 112.041 132.17 113.832C132.049 116.086 133.123 118.25 134.069 120.158C134.102 120.224 134.118 120.297 134.115 120.37C134.112 120.444 134.091 120.515 134.054 120.578C134.017 120.641 133.965 120.692 133.903 120.728C133.841 120.764 133.771 120.783 133.7 120.783H133.698Z" fill="white"/>
<path d="M140.368 127.485C140.276 127.485 140.187 127.453 140.114 127.395C140.041 127.336 139.989 127.255 139.966 127.163C139.943 127.071 139.95 126.973 139.987 126.886C140.023 126.798 140.087 126.726 140.167 126.68C141.707 125.802 141.879 123.36 141.156 121.505C140.797 120.653 140.377 119.829 139.9 119.042C139.262 118.021 138.743 116.926 138.355 115.779C137.958 114.38 137.933 112.897 138.283 111.485C138.632 110.074 139.343 108.785 140.341 107.756C140.421 107.678 140.527 107.635 140.636 107.637C140.746 107.639 140.85 107.686 140.926 107.767C141.002 107.849 141.045 107.958 141.043 108.071C141.042 108.184 140.998 108.292 140.92 108.372C140.03 109.29 139.396 110.439 139.084 111.698C138.773 112.957 138.795 114.279 139.149 115.526C139.518 116.608 140.01 117.641 140.615 118.604C141.114 119.428 141.553 120.291 141.926 121.184C142.773 123.355 142.585 126.282 140.568 127.431C140.507 127.466 140.438 127.484 140.368 127.485Z" fill="white"/>
<path d="M120.261 164.91L59.0873 191.075C56.8817 192.008 54.4609 192.257 52.1207 191.791C49.7805 191.325 47.6221 190.165 45.9095 188.453C44.1968 186.74 43.0039 184.549 42.4765 182.147C41.9492 179.745 42.1102 177.236 42.9399 174.927L61.1853 123.425C63.5442 116.861 70.1891 113.087 76.5408 115.525C79.5907 116.696 82.0657 119.071 83.4214 122.127C84.777 125.184 84.9022 128.672 83.7695 131.824L75.4474 156.2L111.3 141.916" fill="#5939F1"/>
<path d="M120.112 165.144C120.079 165.143 120.048 165.133 120.02 165.114C119.993 165.096 119.972 165.069 119.96 165.038L111.059 142.197L75.3265 156.449C75.2969 156.46 75.2646 156.463 75.2336 156.456C75.2026 156.45 75.1741 156.434 75.1517 156.41C75.1294 156.387 75.114 156.358 75.1075 156.326C75.1011 156.293 75.1038 156.26 75.1154 156.23L80.6408 141.573C80.6566 141.532 80.6877 141.498 80.7274 141.48C80.7671 141.462 80.8121 141.461 80.8525 141.477C80.8929 141.494 80.9253 141.526 80.9427 141.567C80.9601 141.608 80.9611 141.654 80.9453 141.696L75.5546 155.995L111.092 141.821C111.132 141.805 111.176 141.806 111.216 141.823C111.255 141.841 111.286 141.874 111.302 141.915L120.264 164.911C120.279 164.953 120.278 164.999 120.261 165.041C120.245 165.082 120.213 165.114 120.173 165.132C120.153 165.14 120.133 165.144 120.112 165.144Z" fill="#0C0C0C"/>
<path d="M64.1042 160.984C64.0659 160.984 64.0287 160.971 63.9991 160.945C63.9696 160.92 63.9494 160.885 63.9423 160.846C63.9352 160.808 63.9415 160.767 63.9602 160.733C63.9788 160.698 64.0086 160.672 64.0444 160.657L75.2359 156.106C75.256 156.098 75.2775 156.093 75.2992 156.094C75.3209 156.094 75.3423 156.098 75.3623 156.107C75.3823 156.116 75.4003 156.129 75.4155 156.145C75.4306 156.161 75.4425 156.18 75.4505 156.201C75.4584 156.222 75.4623 156.244 75.4618 156.266C75.4614 156.289 75.4566 156.311 75.4478 156.331C75.439 156.352 75.4264 156.37 75.4106 156.386C75.3949 156.401 75.3763 156.413 75.356 156.421L64.164 160.972C64.1449 160.98 64.1246 160.984 64.1042 160.984Z" fill="#0C0C0C"/>
<path d="M66.7107 188.019C66.6727 188.02 66.6359 188.006 66.6066 187.981C66.5772 187.956 66.5571 187.922 66.5497 187.883C66.5424 187.845 66.5482 187.805 66.5662 187.771C66.5842 187.736 66.6132 187.709 66.6483 187.694L120.051 164.819C120.071 164.81 120.092 164.806 120.114 164.806C120.135 164.806 120.156 164.81 120.176 164.819C120.196 164.827 120.214 164.84 120.229 164.856C120.244 164.871 120.256 164.89 120.265 164.91C120.273 164.931 120.277 164.953 120.277 164.975C120.277 164.997 120.273 165.019 120.264 165.04C120.256 165.06 120.244 165.079 120.229 165.094C120.214 165.11 120.196 165.122 120.176 165.131L66.773 188.006C66.7533 188.015 66.7321 188.019 66.7107 188.019Z" fill="#0C0C0C"/>
<path d="M337.832 325.695C337.722 325.695 337.616 325.65 337.538 325.569C336.953 324.964 335.999 313.866 333.429 280.821C332.377 267.3 331.384 254.529 330.66 246.767C330.608 246.213 330.4 246.148 330.331 246.127C329.339 245.818 326.321 248.277 324.637 250.43C324.568 250.519 324.467 250.575 324.358 250.587C324.248 250.599 324.138 250.566 324.053 250.494C323.967 250.423 323.912 250.319 323.9 250.206C323.889 250.093 323.921 249.979 323.99 249.891C325.105 248.467 328.736 244.734 330.57 245.305C330.94 245.42 331.401 245.752 331.487 246.685C332.212 254.453 333.205 267.228 334.257 280.752C335.819 300.833 337.588 323.582 338.169 325.015C338.214 325.079 338.241 325.155 338.246 325.233C338.252 325.312 338.237 325.391 338.202 325.461C338.167 325.532 338.114 325.591 338.049 325.632C337.984 325.673 337.909 325.695 337.832 325.695Z" fill="#494949"/>
<path d="M329.592 261.009C336.486 255.298 338.771 246.409 334.696 241.155C330.62 235.901 321.728 236.271 314.835 241.982C307.941 247.693 305.656 256.582 309.731 261.836C313.806 267.09 322.698 266.72 329.592 261.009Z" fill="#5939F1"/>
<path opacity="0.2" d="M329.592 261.009C336.486 255.298 338.771 246.409 334.696 241.155C330.62 235.901 321.728 236.271 314.835 241.982C307.941 247.693 305.656 256.582 309.731 261.836C313.806 267.09 322.698 266.72 329.592 261.009Z" fill="white"/>
<path d="M311.663 263.173C311.624 263.173 311.585 263.161 311.552 263.139C311.519 263.117 311.492 263.086 311.475 263.049C311.459 263.012 311.452 262.971 311.458 262.931C311.463 262.89 311.479 262.852 311.504 262.821L331.151 238.335C331.168 238.313 331.189 238.295 331.213 238.281C331.238 238.268 331.264 238.259 331.292 238.256C331.319 238.253 331.347 238.256 331.373 238.264C331.4 238.273 331.424 238.286 331.445 238.305C331.467 238.323 331.484 238.345 331.497 238.371C331.51 238.396 331.517 238.423 331.52 238.452C331.522 238.48 331.519 238.509 331.51 238.536C331.502 238.563 331.488 238.588 331.47 238.61L311.823 263.095C311.804 263.119 311.779 263.139 311.752 263.152C311.724 263.166 311.694 263.173 311.663 263.173Z" fill="white"/>
<path d="M342.117 320.446C342.051 320.446 341.986 320.429 341.927 320.398C341.868 320.367 341.817 320.321 341.779 320.265C341.74 320.209 341.715 320.145 341.706 320.077C341.696 320.009 341.703 319.94 341.725 319.875L349.105 297.941C349.322 297.297 349.692 296.719 350.182 296.26C350.671 295.802 351.264 295.478 351.906 295.318C352.548 295.158 353.218 295.167 353.856 295.344C354.494 295.521 355.078 295.861 355.556 296.332L359.457 300.184C359.537 300.263 359.583 300.371 359.586 300.485C359.588 300.598 359.547 300.709 359.471 300.791C359.395 300.873 359.29 300.921 359.18 300.924C359.07 300.926 358.963 300.883 358.883 300.805L354.982 296.953C354.605 296.581 354.143 296.313 353.64 296.173C353.137 296.034 352.607 296.027 352.101 296.153C351.594 296.279 351.126 296.535 350.74 296.897C350.353 297.258 350.061 297.714 349.889 298.223L342.51 320.157C342.481 320.241 342.428 320.314 342.358 320.366C342.288 320.418 342.204 320.446 342.117 320.446Z" fill="#494949"/>
<path d="M370.358 312.328C375.467 308.149 375.164 298.957 369.68 291.797C364.197 284.638 355.61 282.222 350.501 286.401C345.392 290.581 345.696 299.772 351.179 306.932C356.663 314.091 365.25 316.507 370.358 312.328Z" fill="#5939F1"/>
<path d="M334.479 324.296C334.386 324.296 334.295 324.263 334.222 324.204C334.149 324.144 334.097 324.06 334.076 323.966L321.691 270.451C321.607 270.086 321.426 269.752 321.17 269.487C320.914 269.221 320.592 269.033 320.239 268.945C319.886 268.856 319.517 268.869 319.171 268.984C318.825 269.098 318.517 269.308 318.279 269.592L314.462 274.151C314.426 274.194 314.383 274.229 314.334 274.254C314.285 274.279 314.232 274.295 314.178 274.299C314.123 274.303 314.068 274.296 314.017 274.278C313.965 274.26 313.917 274.232 313.876 274.195C313.834 274.158 313.801 274.113 313.776 274.063C313.752 274.012 313.737 273.957 313.733 273.901C313.729 273.845 313.736 273.788 313.753 273.735C313.77 273.681 313.798 273.632 313.833 273.589L317.651 269.03C317.989 268.627 318.427 268.329 318.919 268.167C319.41 268.005 319.935 267.986 320.436 268.113C320.936 268.239 321.394 268.506 321.758 268.883C322.121 269.261 322.378 269.735 322.498 270.253L334.882 323.768C334.908 323.879 334.89 323.996 334.832 324.093C334.774 324.19 334.682 324.259 334.575 324.286C334.543 324.293 334.511 324.297 334.479 324.296Z" fill="#494949"/>
<path d="M329.912 286.04C331.417 277.042 327.433 268.818 321.013 267.671C314.592 266.523 308.167 272.887 306.661 281.884C305.156 290.882 309.14 299.106 315.561 300.253C321.981 301.401 328.406 295.037 329.912 286.04Z" fill="#5939F1"/>
<path d="M337.833 325.695C337.816 325.695 337.799 325.694 337.781 325.691C337.672 325.678 337.573 325.619 337.505 325.53C337.437 325.44 337.406 325.326 337.42 325.213L345.328 258.854C345.414 258.131 345.701 257.449 346.153 256.89C346.605 256.331 347.204 255.919 347.877 255.703C348.551 255.488 349.27 255.478 349.949 255.675C350.628 255.872 351.237 256.268 351.703 256.814L360.742 267.395C360.815 267.48 360.853 267.592 360.846 267.706C360.839 267.819 360.789 267.925 360.706 268.001C360.623 268.076 360.515 268.115 360.405 268.108C360.295 268.1 360.192 268.048 360.119 267.963L351.08 257.382C350.72 256.96 350.249 256.654 349.724 256.502C349.199 256.35 348.643 256.357 348.122 256.524C347.602 256.691 347.139 257.01 346.789 257.442C346.44 257.874 346.219 258.402 346.153 258.961L338.243 325.318C338.231 325.422 338.182 325.517 338.107 325.586C338.031 325.656 337.934 325.694 337.833 325.695Z" fill="#494949"/>
<path d="M370.012 273.274C373.165 267.381 369.455 259.022 361.723 254.602C353.992 250.183 345.168 251.377 342.014 257.269C338.861 263.161 342.571 271.521 350.303 275.941C358.034 280.36 366.858 279.166 370.012 273.274Z" fill="#5939F1"/>
<path opacity="0.2" d="M370.358 312.328C375.467 308.149 375.164 298.957 369.68 291.797C364.197 284.638 355.61 282.222 350.501 286.401C345.392 290.581 345.696 299.772 351.179 306.932C356.663 314.091 365.25 316.507 370.358 312.328Z" fill="white"/>
<path opacity="0.5" d="M329.912 286.04C331.417 277.042 327.433 268.818 321.013 267.671C314.592 266.523 308.167 272.887 306.661 281.884C305.156 290.882 309.14 299.106 315.561 300.253C321.981 301.401 328.406 295.037 329.912 286.04Z" fill="white"/>
<path opacity="0.5" d="M370.012 273.274C373.165 267.381 369.455 259.022 361.723 254.602C353.992 250.183 345.168 251.377 342.014 257.269C338.861 263.161 342.571 271.521 350.303 275.941C358.034 280.36 366.858 279.166 370.012 273.274Z" fill="white"/>
<path d="M347.947 382H327.717L324.365 315.106H351.3L347.947 382Z" fill="#292A2E"/>
<path opacity="0.3" d="M347.947 382H327.717L324.365 315.106H351.3L347.947 382Z" fill="white"/>
<path d="M370.359 312.54C370.327 312.54 370.296 312.533 370.268 312.519C370.24 312.505 370.215 312.484 370.195 312.459L350.337 286.532C350.303 286.487 350.287 286.43 350.294 286.374C350.3 286.317 350.328 286.266 350.371 286.23C350.414 286.195 350.469 286.179 350.524 286.185C350.579 286.192 350.629 286.221 350.663 286.265L370.521 312.192C370.545 312.224 370.561 312.262 370.565 312.302C370.569 312.342 370.562 312.382 370.546 312.419C370.529 312.455 370.502 312.486 370.469 312.507C370.436 312.529 370.398 312.54 370.359 312.54Z" fill="white"/>
<path d="M368.691 275.351C368.647 275.351 368.604 275.336 368.569 275.308L343.158 256.134C343.136 256.117 343.117 256.096 343.103 256.072C343.089 256.048 343.079 256.022 343.075 255.994C343.071 255.966 343.072 255.937 343.078 255.91C343.085 255.883 343.096 255.857 343.112 255.834C343.128 255.811 343.149 255.792 343.172 255.777C343.195 255.763 343.221 255.753 343.248 255.748C343.275 255.744 343.303 255.745 343.329 255.752C343.356 255.759 343.381 255.771 343.403 255.787L368.814 274.963C368.848 274.99 368.874 275.028 368.887 275.07C368.9 275.113 368.9 275.159 368.886 275.202C368.873 275.244 368.847 275.282 368.812 275.308C368.777 275.335 368.735 275.349 368.691 275.35V275.351Z" fill="white"/>
<path d="M314.528 299.974C314.51 299.974 314.492 299.971 314.474 299.966C314.421 299.952 314.376 299.916 314.348 299.866C314.321 299.817 314.313 299.758 314.327 299.703L322.417 268.381C322.423 268.354 322.435 268.328 322.452 268.305C322.468 268.282 322.489 268.263 322.513 268.248C322.537 268.234 322.563 268.224 322.59 268.22C322.617 268.217 322.645 268.218 322.672 268.226C322.699 268.233 322.723 268.246 322.745 268.263C322.767 268.281 322.785 268.302 322.799 268.327C322.813 268.352 322.821 268.379 322.825 268.408C322.828 268.436 322.826 268.465 322.818 268.492L314.729 299.814C314.717 299.86 314.691 299.9 314.655 299.929C314.618 299.958 314.574 299.974 314.528 299.974Z" fill="white"/>
</g>
<defs>
<clipPath id="clip0_1_132">
<rect width="363" height="370" fill="white" transform="translate(11 28)"/>
</clipPath>
</defs>
</svg>
