<svg width="193" height="139" viewBox="0 0 193 139" fill="none" xmlns="http://www.w3.org/2000/svg">
<path fill-rule="evenodd" clip-rule="evenodd" d="M21.1199 57.125C22.8334 55.8651 25.1669 55.8651 26.8804 57.125L37.2123 64.722C38.4583 65.6382 39.1941 67.0925 39.1941 68.6391V84.137H29.4699V71.099L24.0001 67.0771L18.5303 71.099V84.137H8.80615V68.6391C8.80615 67.0925 9.54196 65.6382 10.788 64.722L21.1199 57.125Z" fill="#052F41"/>
<rect x="18.5928" y="84.1366" width="10.8649" height="7.86328" fill="white"/>
<path d="M47.0312 59.0312H52.2344V72.1719H55.3125V59.0312H60.5156V90.3125H55.3125V77.1719H52.2344V90.3125H47.0312V59.0312ZM77.7656 84.8594C77.7656 88.8177 75.5156 90.8021 71.0156 90.8125C66.526 90.8125 64.2812 88.8281 64.2812 84.8594V68.3594C64.2812 64.401 66.526 62.4219 71.0156 62.4219C75.5156 62.4219 77.7656 64.401 77.7656 68.3594V84.8594ZM72.5625 68.3594C72.5625 67.3281 72.0521 66.8073 71.0312 66.7969H71C69.9896 66.7969 69.4844 67.3177 69.4844 68.3594V84.8594C69.4844 85.8906 69.9948 86.4062 71.0156 86.4062C72.0469 86.4062 72.5625 85.8906 72.5625 84.8594V68.3594ZM91.5469 81.0312L96.3594 62.7812H101.5V90.3125H96.4844V77.6406L93.4219 90.3125H89.7656L86.5938 77.5625V90.3125H81.5312V62.7812H86.6719L91.5469 81.0312ZM105.562 62.7812H117.812V67.1719H110.766V74.3438H116.828V78.75H110.766V85.9219H117.812V90.3125H105.562V62.7812ZM121.094 59.0312H133.344V64.0156H126.297V72.1719H132.359V77.1719H126.297V85.3281H133.344V90.3125H121.094V59.0312ZM149.781 80.4375L151.266 90.3125H146.016L145.156 84.5938H141.328L140.453 90.3125H135.219L136.703 80.4844L139.875 62.7812H146.625L149.781 80.4375ZM144.484 80.1875L143.234 71.8594L141.984 80.1875H144.484ZM153.625 68.3594C153.625 64.401 155.87 62.4219 160.359 62.4219C164.859 62.4219 167.109 64.401 167.109 68.3594V72.2656H161.906V68.3594C161.906 67.3281 161.396 66.8073 160.375 66.7969H160.344C159.333 66.7969 158.828 67.3177 158.828 68.3594V70.7969C158.828 71.9219 160.161 73.3281 162.828 75.0156C165.682 76.7969 167.109 78.9427 167.109 81.4531V84.8594C167.109 88.8281 164.865 90.8125 160.375 90.8125C155.875 90.8021 153.625 88.8177 153.625 84.8594V80.9531H158.828V84.8594C158.828 85.8906 159.344 86.4062 160.375 86.4062C161.396 86.4062 161.906 85.8906 161.906 84.8594V81.7812C161.906 80.5625 160.573 79.1094 157.906 77.4219C155.052 75.6302 153.625 73.4531 153.625 70.8906V68.3594ZM170.875 62.7812H183.125V67.1719H176.078V74.3438H182.141V78.75H176.078V85.9219H183.125V90.3125H170.875V62.7812Z" fill="white"/>
</svg>
