<svg width="25" height="24" viewBox="0 0 25 24" fill="none" xmlns="http://www.w3.org/2000/svg">
<path d="M10.6594 0.395508C9.28968 0.418829 8.05248 1.24448 7.49279 2.52117L14.1943 4.56694C14.4889 2.79109 13.4333 1.06933 11.7346 0.546844C11.4302 0.453561 11.1111 0.402454 10.792 0.395508H10.6594ZM7.23749 3.37659C6.93801 5.1574 7.99356 6.88412 9.69717 7.40512C11.4057 7.92611 13.2271 7.07267 13.9439 5.42038L7.23749 3.37659ZM20.2723 5.57419C19.0302 5.57915 17.7095 6.1845 16.7129 7.60855L10.5858 16.3861C8.9411 18.738 9.65789 21.1991 11.278 22.3601C12.9031 23.5262 15.4315 23.3922 17.0762 21.0403L23.1984 12.2677C24.8431 9.91085 24.1263 7.45473 22.5061 6.2887C21.8974 5.85206 21.1658 5.599 20.395 5.57419H20.2723ZM20.1839 6.43259C20.2478 6.43259 20.3116 6.43259 20.3705 6.43755C20.9645 6.46236 21.5242 6.67572 21.9955 7.01809C23.2573 7.92115 23.8906 9.7223 22.4718 11.7517L19.3051 16.2918C17.5475 15.8155 15.2891 14.1929 14.263 12.6696L17.4395 8.12458C18.2692 6.9387 19.256 6.45244 20.1839 6.43259ZM4.46606 10.2135C3.99377 10.2185 3.52785 10.3177 3.09483 10.5112C1.46928 11.2307 0.623372 13.0666 1.11923 14.7933L7.53698 11.9601C6.89383 10.8635 5.72536 10.1986 4.46606 10.2135ZM7.88555 12.7738L1.46879 15.612C2.3746 17.17 4.28196 17.7952 5.91683 17.0758C7.54679 16.3513 8.39123 14.5055 7.88555 12.7738Z" fill="white"/>
</svg>
