<svg width="23" height="23" viewBox="0 0 23 23" fill="none" xmlns="http://www.w3.org/2000/svg">
<path d="M15.268 13.8712C15.1682 13.766 15.0495 13.6825 14.9187 13.6255C14.7879 13.5685 14.6476 13.5391 14.5059 13.5391C14.3642 13.5391 14.2239 13.5685 14.0931 13.6255C13.9623 13.6825 13.8436 13.766 13.7438 13.8712C13.5439 14.0816 13.4317 14.3661 13.4317 14.6627C13.4317 14.9593 13.5439 15.2439 13.7438 15.4542L20.3774 22.3925C20.4772 22.4977 20.5959 22.5813 20.7267 22.6383C20.8575 22.6953 20.9978 22.7246 21.1395 22.7246C21.2812 22.7246 21.4215 22.6953 21.5523 22.6383C21.6832 22.5813 21.8019 22.4977 21.9017 22.3925C22.1016 22.1822 22.2138 21.8976 22.2138 21.601C22.2138 21.3044 22.1016 21.0199 21.9017 20.8095L15.268 13.8712ZM16.5883 11.0757C17.4421 11.0749 18.2606 10.7196 18.8639 10.0877L21.9017 6.91049C22.1016 6.70014 22.2138 6.41559 22.2138 6.11899C22.2138 5.82239 22.1016 5.53784 21.9017 5.32748C21.8019 5.22225 21.6832 5.13873 21.5523 5.08173C21.4215 5.02474 21.2812 4.99539 21.1395 4.99539C20.9978 4.99539 20.8575 5.02474 20.7267 5.08173C20.5959 5.13873 20.4772 5.22225 20.3774 5.32748L17.3397 8.50472C17.1386 8.71383 16.8665 8.8312 16.583 8.8312C16.2994 8.8312 16.0273 8.71383 15.8262 8.50472L19.626 4.53037C19.826 4.32001 19.9382 4.03546 19.9382 3.73886C19.9382 3.44226 19.826 3.15771 19.626 2.94736C19.5263 2.84213 19.4075 2.75861 19.2767 2.70161C19.1459 2.64461 19.0056 2.61527 18.8639 2.61527C18.7222 2.61527 18.5819 2.64461 18.4511 2.70161C18.3203 2.75861 18.2016 2.84213 18.1018 2.94736L14.3127 6.91049C14.1128 6.70014 14.0006 6.41559 14.0006 6.11899C14.0006 5.82239 14.1128 5.53784 14.3127 5.32748L17.3397 2.15024C17.4521 2.0496 17.5433 1.92574 17.6078 1.78646C17.6722 1.64717 17.7084 1.49545 17.7141 1.34084C17.7198 1.18622 17.6949 1.03204 17.6409 0.887967C17.587 0.743896 17.5051 0.613048 17.4005 0.503636C17.2959 0.394223 17.1708 0.308609 17.0331 0.252166C16.8953 0.195722 16.7479 0.169669 16.6001 0.175641C16.4522 0.181613 16.3072 0.219482 16.174 0.28687C16.0408 0.354258 15.9224 0.449711 15.8262 0.567237L12.7885 3.74448C12.1854 4.376 11.8467 5.23205 11.8467 6.1246C11.8467 7.01715 12.1854 7.8732 12.7885 8.50472L11.4789 9.89687L9.80442 8.16791C10.2797 7.27083 10.4594 6.23507 10.3158 5.22052C10.1723 4.20598 9.71342 3.26906 9.01011 2.55442C7.46441 0.937728 3.46062 -0.869818 1.57143 1.13981C-0.317753 3.14945 1.38896 7.29221 2.89172 8.92012C3.73094 9.80103 4.85925 10.3148 6.04752 10.3572H6.19779C6.92354 10.3464 7.63399 10.1374 8.25872 9.75092L9.94396 11.4799L1.0562 20.7758C0.956824 20.8805 0.878132 21.0046 0.824619 21.1411C0.771106 21.2776 0.743819 21.4238 0.744318 21.5713C0.744816 21.7188 0.773089 21.8648 0.827523 22.0009C0.881957 22.137 0.961486 22.2605 1.06157 22.3644C1.16165 22.4684 1.28033 22.5507 1.41082 22.6067C1.54132 22.6626 1.68107 22.6912 1.82211 22.6907C1.96315 22.6901 2.10271 22.6606 2.23282 22.6036C2.36294 22.5467 2.48105 22.4635 2.58043 22.3588L12.241 12.2545L14.302 10.099C14.6029 10.4111 14.9597 10.6581 15.3521 10.8257C15.7444 10.9933 16.1645 11.0783 16.5883 11.0757ZM7.64689 7.48307C7.44579 7.69215 7.2058 7.85584 6.94177 7.96398C6.67774 8.07213 6.39529 8.12243 6.11192 8.11178C5.48442 8.08352 4.89185 7.8018 4.45888 7.32589C3.29961 6.11337 2.48383 3.36276 3.09566 2.72282C3.29889 2.56248 3.54998 2.4829 3.80411 2.49828C5.17409 2.61249 6.4708 3.19205 7.49661 4.14865C7.93485 4.57271 8.1962 5.15993 8.22432 5.78368C8.25243 6.40744 8.04505 7.01776 7.64689 7.48307Z" fill="white"/>
</svg>
