<svg width="22" height="22" viewBox="0 0 22 22" fill="none" xmlns="http://www.w3.org/2000/svg">
<path d="M17.2698 17.27C16.1099 17.27 15.1798 18.2001 15.1798 19.36C15.1798 19.9144 15.4 20.4459 15.792 20.8379C16.1839 21.2299 16.7155 21.45 17.2698 21.45C17.8241 21.45 18.3557 21.2299 18.7477 20.8379C19.1396 20.4459 19.3598 19.9144 19.3598 19.36C19.3598 18.8057 19.1396 18.2741 18.7477 17.8822C18.3557 17.4902 17.8241 17.27 17.2698 17.27ZM0.549805 0.550049V2.64005H2.6398L6.4018 10.5716L4.9806 13.1318C4.82385 13.4244 4.7298 13.7693 4.7298 14.135C4.7298 14.6894 4.95 15.221 5.34195 15.6129C5.7339 16.0049 6.2655 16.225 6.8198 16.225H19.3598V14.135H7.2587C7.18942 14.135 7.12297 14.1075 7.07397 14.0585C7.02498 14.0095 6.99745 13.9431 6.99745 13.8738C6.99745 13.8215 7.0079 13.7797 7.0288 13.7484L7.9693 12.045H15.7546C16.5383 12.045 17.228 11.6061 17.5833 10.9687L21.3244 4.20755C21.3976 4.04035 21.4498 3.8627 21.4498 3.68505C21.4498 3.4079 21.3397 3.1421 21.1437 2.94612C20.9478 2.75015 20.682 2.64005 20.4048 2.64005H4.94925L3.96695 0.550049M6.8198 17.27C5.65985 17.27 4.7298 18.2001 4.7298 19.36C4.7298 19.9144 4.95 20.4459 5.34195 20.8379C5.7339 21.2299 6.2655 21.45 6.8198 21.45C7.37411 21.45 7.90571 21.2299 8.29766 20.8379C8.68961 20.4459 8.9098 19.9144 8.9098 19.36C8.9098 18.8057 8.68961 18.2741 8.29766 17.8822C7.90571 17.4902 7.37411 17.27 6.8198 17.27Z" fill="white"/>
</svg>
