<svg width="18" height="20" viewBox="0 0 18 20" fill="none" xmlns="http://www.w3.org/2000/svg">
<path d="M14.8975 8.21393C14.6255 8.21393 14.3647 8.10497 14.1723 7.91102C13.98 7.71707 13.8719 7.45402 13.8719 7.17974C13.8719 6.90545 13.98 6.6424 14.1723 6.44846C14.3647 6.25451 14.6255 6.14555 14.8975 6.14555C15.1696 6.14555 15.4304 6.25451 15.6228 6.44846C15.8151 6.6424 15.9232 6.90545 15.9232 7.17974C15.9232 7.45402 15.8151 7.71707 15.6228 7.91102C15.4304 8.10497 15.1696 8.21393 14.8975 8.21393ZM8.7437 8.21393H2.58986V3.04299H8.7437M16.7129 5.34922L16.7232 5.33888L12.9078 1.4917L11.8206 2.58794L13.9847 4.77008C13.0206 5.11136 12.3334 6.07316 12.3334 7.17974C12.3334 7.51927 12.3998 7.85547 12.5286 8.16915C12.6575 8.48284 12.8464 8.76786 13.0845 9.00794C13.5653 9.49281 14.2175 9.76521 14.8975 9.76521C15.2668 9.76521 15.6052 9.68247 15.9232 9.54803V17.0045C15.9232 17.2788 15.8151 17.5419 15.6228 17.7358C15.4304 17.9298 15.1696 18.0387 14.8975 18.0387C14.6255 18.0387 14.3647 17.9298 14.1723 17.7358C13.98 17.5419 13.8719 17.2788 13.8719 17.0045V12.3507C13.8719 11.8021 13.6558 11.276 13.2711 10.8881C12.8864 10.5002 12.3647 10.2823 11.8206 10.2823H10.795V3.04299C10.795 2.49442 10.5789 1.96832 10.1942 1.58042C9.80949 1.19253 9.28774 0.974609 8.7437 0.974609H2.58986C1.45139 0.974609 0.538574 1.89504 0.538574 3.04299V19.59H10.795V11.8336H12.3334V17.0045C12.3334 17.6902 12.6036 18.3479 13.0845 18.8327C13.5653 19.3176 14.2175 19.59 14.8975 19.59C15.2343 19.59 15.5677 19.5231 15.8788 19.3932C16.1899 19.2633 16.4725 19.0728 16.7106 18.8327C16.9487 18.5926 17.1376 18.3076 17.2665 17.9939C17.3953 17.6803 17.4617 17.3441 17.4617 17.0045V7.17974C17.4617 6.46615 17.1745 5.81461 16.7129 5.34922Z" fill="white"/>
</svg>
