<svg width="22" height="22" viewBox="0 0 22 22" fill="none" xmlns="http://www.w3.org/2000/svg">
<path d="M10.9999 0.879883C16.5892 0.879883 21.1199 5.41061 21.1199 10.9999C21.1212 12.5711 20.7561 14.1209 20.0535 15.5263C19.351 16.9317 18.3304 18.1539 17.0729 19.0959H19.0959C19.3643 19.0959 19.6217 19.2025 19.8115 19.3923C20.0013 19.5821 20.1079 19.8395 20.1079 20.1079C20.1079 20.3763 20.0013 20.6337 19.8115 20.8235C19.6217 21.0133 19.3643 21.1199 19.0959 21.1199H10.9999C5.41061 21.1199 0.879883 16.5892 0.879883 10.9999C0.879883 5.41061 5.41061 0.879883 10.9999 0.879883ZM10.9999 13.0239C10.4631 13.0239 9.94827 13.2371 9.5687 13.6167C9.18912 13.9963 8.97588 14.5111 8.97588 15.0479C8.97588 15.5847 9.18912 16.0995 9.5687 16.4791C9.94827 16.8586 10.4631 17.0719 10.9999 17.0719C11.5367 17.0719 12.0515 16.8586 12.4311 16.4791C12.8106 16.0995 13.0239 15.5847 13.0239 15.0479C13.0239 14.5111 12.8106 13.9963 12.4311 13.6167C12.0515 13.2371 11.5367 13.0239 10.9999 13.0239ZM6.95188 8.97588C6.41508 8.97588 5.90027 9.18913 5.5207 9.5687C5.14112 9.94827 4.92788 10.4631 4.92788 10.9999C4.92788 11.5367 5.14112 12.0515 5.5207 12.4311C5.90027 12.8106 6.41508 13.0239 6.95188 13.0239C7.48868 13.0239 8.00349 12.8106 8.38307 12.4311C8.76264 12.0515 8.97588 11.5367 8.97588 10.9999C8.97588 10.4631 8.76264 9.94827 8.38307 9.5687C8.00349 9.18913 7.48868 8.97588 6.95188 8.97588ZM15.0479 8.97588C14.5111 8.97588 13.9963 9.18913 13.6167 9.5687C13.2371 9.94827 13.0239 10.4631 13.0239 10.9999C13.0239 11.5367 13.2371 12.0515 13.6167 12.4311C13.9963 12.8106 14.5111 13.0239 15.0479 13.0239C15.5847 13.0239 16.0995 12.8106 16.4791 12.4311C16.8586 12.0515 17.0719 11.5367 17.0719 10.9999C17.0719 10.4631 16.8586 9.94827 16.4791 9.5687C16.0995 9.18913 15.5847 8.97588 15.0479 8.97588ZM10.9999 4.92788C10.4631 4.92788 9.94827 5.14112 9.5687 5.5207C9.18912 5.90027 8.97588 6.41508 8.97588 6.95188C8.97588 7.48868 9.18912 8.00349 9.5687 8.38307C9.94827 8.76264 10.4631 8.97588 10.9999 8.97588C11.5367 8.97588 12.0515 8.76264 12.4311 8.38307C12.8106 8.00349 13.0239 7.48868 13.0239 6.95188C13.0239 6.41508 12.8106 5.90027 12.4311 5.5207C12.0515 5.14112 11.5367 4.92788 10.9999 4.92788Z" fill="white"/>
</svg>
