<svg width="90" height="83" viewBox="0 0 90 83" fill="none" xmlns="http://www.w3.org/2000/svg">
<g filter="url(#filter0_d_20860_71657)">
<path d="M50.6922 14.4075L33.8496 24.7323H53.4058L56.3065 23.5635H59.4878C58.9264 22.2323 57.4293 18.888 55.9322 16.1607C54.435 13.4334 51.8151 13.8555 50.6922 14.4075Z" fill="#FF6600"/>
</g>
<g filter="url(#filter1_d_20860_71657)">
<path fill-rule="evenodd" clip-rule="evenodd" d="M39.8125 24.7327H71.4131L70.311 20.7271C69.6826 18.4431 67.3289 17.103 65.0538 17.7338L39.8125 24.7327Z" fill="#0000FF"/>
</g>
<g filter="url(#filter2_d_20860_71657)">
<mask id="mask0_20860_71657" style="mask-type:alpha" maskUnits="userSpaceOnUse" x="10" y="27" width="70" height="46">
<path d="M10 31.8614C10 29.2791 12.0933 27.1858 14.6756 27.1858H75.0842C77.6665 27.1858 79.7598 29.2791 79.7598 31.8614V68.144C79.7598 70.7262 77.6665 72.8196 75.0842 72.8196H14.6756C12.0933 72.8196 10 70.7262 10 68.144V31.8614Z" fill="#0EA16C"/>
</mask>
<g mask="url(#mask0_20860_71657)">
<path d="M9.25146 26.8125H80.5075V73.1944H9.25146V26.8125Z" fill="#0EA16C"/>
<g filter="url(#filter3_d_20860_71657)">
<path d="M58.2526 41.5862H79.7603V59.9145H58.2526L48.1533 50.0958L58.2526 41.5862Z" fill="#007745"/>
<path d="M60.1224 50.3744C60.1224 51.8205 58.9501 52.9928 57.5041 52.9928C56.058 52.9928 54.8857 51.8205 54.8857 50.3744C54.8857 48.9284 56.058 47.7561 57.5041 47.7561C58.9501 47.7561 60.1224 48.9284 60.1224 50.3744Z" fill="white"/>
</g>
</g>
</g>
<path d="M38.0233 45.7034V47.6903C38.0233 47.8721 37.9656 48.0215 37.85 48.1384C37.7345 48.2552 37.5869 48.3137 37.4072 48.3137H34.1723C33.8771 50.1837 33.0491 51.7031 31.6885 52.8719C30.3278 54.0406 28.5563 54.7549 26.3741 55.0146C28.5178 57.3261 31.4638 60.8064 35.2121 65.4555C35.3918 65.6633 35.4175 65.8841 35.2891 66.1178C35.1864 66.3516 35.0003 66.4684 34.7307 66.4684H30.976C30.7706 66.4684 30.6102 66.3905 30.4947 66.2347C26.5667 61.4687 23.3703 57.7612 20.9057 55.112C20.7902 54.9951 20.7324 54.8523 20.7324 54.6834V52.2096C20.7324 52.0407 20.7934 51.8946 20.9153 51.7713C21.0373 51.6479 21.1817 51.5862 21.3486 51.5862H23.5051C25.1996 51.5862 26.5634 51.307 27.5968 50.7486C28.6301 50.1902 29.288 49.3786 29.5704 48.3137H21.3486C21.1689 48.3137 21.0212 48.2552 20.9057 48.1384C20.7902 48.0215 20.7324 47.8721 20.7324 47.6903V45.7034C20.7324 45.5216 20.7902 45.3723 20.9057 45.2554C21.0212 45.1385 21.1689 45.0801 21.3486 45.0801H29.3009C28.5692 43.6127 26.8491 42.8789 24.1405 42.8789H21.3486C21.1817 42.8789 21.0373 42.8173 20.9153 42.6939C20.7934 42.5705 20.7324 42.4244 20.7324 42.2556V39.6648C20.7324 39.483 20.7902 39.3337 20.9057 39.2168C21.0212 39.0999 21.1689 39.0415 21.3486 39.0415H37.3687C37.5484 39.0415 37.696 39.0999 37.8115 39.2168C37.927 39.3337 37.9848 39.483 37.9848 39.6648V41.6517C37.9848 41.8335 37.927 41.9829 37.8115 42.0998C37.696 42.2166 37.5484 42.2751 37.3687 42.2751H32.8823C33.4856 43.0672 33.8964 44.0022 34.1146 45.0801H37.4072C37.5869 45.0801 37.7345 45.1385 37.85 45.2554C37.9656 45.3723 38.0233 45.5216 38.0233 45.7034Z" fill="white"/>
<defs>
<filter id="filter0_d_20860_71657" x="23.8496" y="0" width="45.6382" height="30.7322" filterUnits="userSpaceOnUse" color-interpolation-filters="sRGB">
<feFlood flood-opacity="0" result="BackgroundImageFix"/>
<feColorMatrix in="SourceAlpha" type="matrix" values="0 0 0 0 0 0 0 0 0 0 0 0 0 0 0 0 0 0 127 0" result="hardAlpha"/>
<feOffset dy="-4"/>
<feGaussianBlur stdDeviation="5"/>
<feComposite in2="hardAlpha" operator="out"/>
<feColorMatrix type="matrix" values="0 0 0 0 0 0 0 0 0 0 0 0 0 0 0 0 0 0 0.25 0"/>
<feBlend mode="normal" in2="BackgroundImageFix" result="effect1_dropShadow_20860_71657"/>
<feBlend mode="normal" in="SourceGraphic" in2="effect1_dropShadow_20860_71657" result="shape"/>
</filter>
<filter id="filter1_d_20860_71657" x="29.8125" y="3.57788" width="51.6006" height="27.1548" filterUnits="userSpaceOnUse" color-interpolation-filters="sRGB">
<feFlood flood-opacity="0" result="BackgroundImageFix"/>
<feColorMatrix in="SourceAlpha" type="matrix" values="0 0 0 0 0 0 0 0 0 0 0 0 0 0 0 0 0 0 127 0" result="hardAlpha"/>
<feOffset dy="-4"/>
<feGaussianBlur stdDeviation="5"/>
<feComposite in2="hardAlpha" operator="out"/>
<feColorMatrix type="matrix" values="0 0 0 0 0 0 0 0 0 0 0 0 0 0 0 0 0 0 0.25 0"/>
<feBlend mode="normal" in2="BackgroundImageFix" result="effect1_dropShadow_20860_71657"/>
<feBlend mode="normal" in="SourceGraphic" in2="effect1_dropShadow_20860_71657" result="shape"/>
</filter>
<filter id="filter2_d_20860_71657" x="0" y="17.1858" width="89.7598" height="65.6338" filterUnits="userSpaceOnUse" color-interpolation-filters="sRGB">
<feFlood flood-opacity="0" result="BackgroundImageFix"/>
<feColorMatrix in="SourceAlpha" type="matrix" values="0 0 0 0 0 0 0 0 0 0 0 0 0 0 0 0 0 0 127 0" result="hardAlpha"/>
<feOffset/>
<feGaussianBlur stdDeviation="5"/>
<feComposite in2="hardAlpha" operator="out"/>
<feColorMatrix type="matrix" values="0 0 0 0 0 0 0 0 0 0 0 0 0 0 0 0 0 0 0.25 0"/>
<feBlend mode="normal" in2="BackgroundImageFix" result="effect1_dropShadow_20860_71657"/>
<feBlend mode="normal" in="SourceGraphic" in2="effect1_dropShadow_20860_71657" result="shape"/>
</filter>
<filter id="filter3_d_20860_71657" x="38.1533" y="33.5862" width="47.6069" height="34.3284" filterUnits="userSpaceOnUse" color-interpolation-filters="sRGB">
<feFlood flood-opacity="0" result="BackgroundImageFix"/>
<feColorMatrix in="SourceAlpha" type="matrix" values="0 0 0 0 0 0 0 0 0 0 0 0 0 0 0 0 0 0 127 0" result="hardAlpha"/>
<feOffset dx="-2"/>
<feGaussianBlur stdDeviation="4"/>
<feComposite in2="hardAlpha" operator="out"/>
<feColorMatrix type="matrix" values="0 0 0 0 1 0 0 0 0 1 0 0 0 0 1 0 0 0 0.25 0"/>
<feBlend mode="normal" in2="BackgroundImageFix" result="effect1_dropShadow_20860_71657"/>
<feBlend mode="normal" in="SourceGraphic" in2="effect1_dropShadow_20860_71657" result="shape"/>
</filter>
</defs>
</svg>
