<svg width="103" height="134" viewBox="0 0 103 134" fill="none" xmlns="http://www.w3.org/2000/svg">
<g opacity="0.1">
<path d="M109.865 6.81478C96.7236 -0.866194 81.0738 -1.90538 66.6954 2.9467C61.7903 4.60206 57.11 6.93424 52.8639 9.89893C48.4654 12.97 45.1655 17.1609 41.2572 20.7839C37.3041 24.4483 33.2113 28.0142 28.5654 30.7836C22.0141 34.6891 14.3847 37.0238 8.91967 42.3439C2.90604 48.1981 0.431892 56.8845 0.0546334 65.2688C-0.26344 72.3372 0.777925 79.5767 3.95358 85.8993C7.27447 92.5106 12.7732 97.8271 18.8784 102.006C26.7913 107.423 35.8757 111.119 45.3224 112.766C64.084 116.038 83.6369 111.121 100.3 101.898C110.177 96.4324 119.321 89.3734 126.08 80.3319C132.838 71.2904 137.092 60.152 136.784 48.8677C136.309 31.4931 124.871 15.5861 109.865 6.81478Z" fill="#ECDEFF"/>
<path d="M40.0962 17.2218C41.3231 15.5014 42.4622 13.621 42.7149 11.523C42.9672 9.42464 42.115 7.06487 40.2222 6.12481C38.3374 5.18838 35.9525 5.92329 34.4297 7.37605C32.9065 8.8288 32.0805 10.8549 31.4265 12.8552C30.1698 16.6993 29.2421 20.941 26.2408 23.6523C25.5472 24.279 24.7517 24.8116 24.2031 25.5683C22.9068 27.3562 24.2205 29.2251 26.2571 29.4375C28.0345 29.6231 29.5475 27.9412 30.8154 26.9281C34.3346 24.1163 37.4775 20.8938 40.0962 17.2218Z" fill="#ECDEFF"/>
<path d="M101.865 17.5777C102.394 17.5813 102.94 17.582 103.427 17.3751C104.273 17.0156 104.757 16.1013 104.938 15.2008C105.135 14.2248 105.038 13.1591 104.502 12.32C103.966 11.4809 102.946 10.9235 101.965 11.0938C100.984 11.2641 100.173 12.2626 100.355 13.2415C99.9803 12.5005 98.7214 12.4856 98.3293 13.2172C98.2091 12.044 96.6627 11.3828 95.6173 11.9279C94.5716 12.4732 94.1595 13.8639 94.5026 14.992C93.719 14.4223 92.4101 14.9801 92.2783 15.9397C91.9526 15.6413 91.6824 15.2615 91.279 15.0817C90.8756 14.902 90.2747 15.0621 90.2191 15.5C89.7878 15.1024 89.1335 14.9644 88.5783 15.1547C88.0231 15.3446 87.5907 15.8548 87.4937 16.4335C87.2624 17.8129 88.3205 17.6118 89.1553 17.4952C90.5064 17.3068 92.0252 17.5069 93.3904 17.5167C96.215 17.5374 99.0402 17.5573 101.865 17.5777Z" fill="white"/>
<path d="M14.4037 36.9453C14.9328 36.9489 15.4792 36.9496 15.9658 36.7427C16.8114 36.3832 17.2958 35.4689 17.477 34.5684C17.6734 33.5924 17.5761 32.5267 17.0405 31.6876C16.505 30.8485 15.4847 30.2911 14.5039 30.4614C13.5232 30.6317 12.712 31.6302 12.8936 32.6092C12.5189 31.8681 11.26 31.8532 10.8679 32.5848C10.7477 31.4117 9.20125 30.7505 8.1559 31.2955C7.11017 31.8408 6.69806 33.2315 7.04118 34.3597C6.25762 33.79 4.94865 34.3477 4.81685 35.3073C4.49115 35.0089 4.221 34.6291 3.8176 34.4493C3.4142 34.2696 2.81327 34.4297 2.75772 34.8676C2.32636 34.47 1.67206 34.3321 1.11688 34.5223C0.561703 34.7122 0.129253 35.2224 0.0323064 35.8012C-0.198987 37.1806 0.859082 36.9794 1.69348 36.8629C3.04457 36.6744 4.5634 36.8745 5.92865 36.8843C8.75355 36.905 11.5785 36.9249 14.4037 36.9453Z" fill="#ECDEFF"/>
<path d="M14.8342 54.2513C14.2355 54.2557 13.6175 54.2561 13.0667 54.0219C12.1099 53.6152 11.5616 52.5807 11.3565 51.5615C11.1343 50.4573 11.2443 49.2511 11.8503 48.3016C12.4563 47.3521 13.611 46.7214 14.721 46.9139C15.8309 47.1063 16.7485 48.2366 16.543 49.3444C16.9671 48.5057 18.3915 48.489 18.8352 49.3172C18.9714 47.9897 20.7211 47.2414 21.9041 47.8583C23.0875 48.4752 23.5537 50.0492 23.1655 51.3259C24.0522 50.6814 25.5333 51.3124 25.6825 52.3985C26.0507 52.0608 26.3568 51.6312 26.8132 51.4275C27.2696 51.2238 27.9497 51.4054 28.0125 51.901C28.5005 51.4508 29.2409 51.295 29.869 51.51C30.4972 51.7249 30.9866 52.3019 31.0963 52.9569C31.3577 54.5179 30.1606 54.2902 29.2165 54.1584C27.6879 53.9449 25.969 54.1715 24.4244 54.1827C21.2277 54.2056 18.031 54.2285 14.8342 54.2513Z" fill="white"/>
</g>
<path d="M49.457 85.1396C37.0492 85.1396 30.9372 73.8803 30.6834 73.401C30.1068 72.3132 30.5211 70.9639 31.6086 70.3877C32.6957 69.8118 34.0417 70.2239 34.6198 71.3085C34.834 71.7068 39.7765 80.6818 49.457 80.6818C50.6879 80.6818 51.6861 81.6796 51.6861 82.9109C51.6861 84.1414 50.6879 85.1396 49.457 85.1396Z" fill="#DDA38C"/>
<path d="M57.4487 114.536C57.4487 114.536 57.944 119.233 66.9445 119.233C75.9446 119.233 77.1192 114.536 77.1192 114.536H57.4487Z" stroke="#244E80" stroke-width="0.343641" stroke-miterlimit="10"/>
<path d="M75.6773 116.15H58.2134C56.2342 116.15 54.6147 114.531 54.6147 112.552V103.896C54.6147 101.916 56.2342 100.297 58.2134 100.297H75.6773C77.6566 100.297 79.276 101.916 79.276 103.896V112.552C79.276 114.531 77.6566 116.15 75.6773 116.15Z" fill="white" stroke="#244E80" stroke-width="0.343641" stroke-miterlimit="10"/>
<path d="M78.5049 101.681L54.6152 105.617V106.855L79.1102 102.819C78.978 102.402 78.77 102.018 78.5049 101.681Z" fill="#DEEEFC"/>
<path d="M79.2765 104.229L54.6152 108.292V109.529L79.2765 105.466V104.229Z" fill="#DEEEFC"/>
<path d="M54.6152 112.202L79.2765 108.139V106.902L54.6152 110.965V112.202Z" fill="#DEEEFC"/>
<path d="M55.3756 114.752L79.2772 110.814V109.577L54.7769 113.614C54.9065 114.031 55.1131 114.414 55.3756 114.752Z" fill="#DEEEFC"/>
<path d="M58.2126 116.151H63.1094L79.1409 113.51C79.2258 113.204 79.2749 112.885 79.2749 112.553V112.251L56.9727 115.925C57.3604 116.069 57.7769 116.151 58.2126 116.151Z" fill="#DEEEFC"/>
<path d="M78.5049 101.681L54.6152 105.617V106.855L79.1102 102.819C78.978 102.402 78.77 102.018 78.5049 101.681Z" stroke="#244E80" stroke-width="0.343641" stroke-miterlimit="10"/>
<path d="M79.2765 104.229L54.6152 108.292V109.529L79.2765 105.466V104.229Z" stroke="#244E80" stroke-width="0.343641" stroke-miterlimit="10"/>
<path d="M54.6152 112.202L79.2765 108.139V106.902L54.6152 110.965V112.202Z" stroke="#244E80" stroke-width="0.343641" stroke-miterlimit="10"/>
<path d="M55.3756 114.752L79.2772 110.814V109.577L54.7769 113.614C54.9065 114.031 55.1131 114.414 55.3756 114.752Z" stroke="#244E80" stroke-width="0.343641" stroke-miterlimit="10"/>
<path d="M58.2126 116.151H63.1094L79.1409 113.51C79.2258 113.204 79.2749 112.885 79.2749 112.553V112.251L56.9727 115.925C57.3604 116.069 57.7769 116.151 58.2126 116.151Z" stroke="#244E80" stroke-width="0.343641" stroke-miterlimit="10"/>
<path d="M75.6773 116.15H58.2134C56.2342 116.15 54.6147 114.531 54.6147 112.552V103.896C54.6147 101.916 56.2342 100.297 58.2134 100.297H75.6773C77.6566 100.297 79.276 101.916 79.276 103.896V112.552C79.276 114.531 77.6566 116.15 75.6773 116.15Z" stroke="#244E80" stroke-width="0.343641" stroke-miterlimit="10"/>
<path d="M98.7485 52.231C98.0456 42.3119 91.9212 22.9635 68.0867 21.8016V21.746C67.7018 21.746 67.322 21.7511 66.9455 21.7602C66.5693 21.7511 66.1892 21.746 65.8043 21.746V21.8016C41.9698 22.9635 35.8454 42.3115 35.1425 52.231C34.4177 62.4598 39.7335 70.4335 44.1633 78.4071C48.5931 86.3807 50.2038 97.0525 50.8886 100.918C51.5734 104.784 55.0769 104.664 55.0769 104.664H65.8046H66.9459L68.0871 104.664L78.8148 104.664C78.8148 104.664 82.3183 104.785 83.0028 100.918C83.6872 97.0525 85.2983 86.3807 89.7281 78.4071C94.1579 70.4335 99.4736 62.4598 98.7485 52.231Z" fill="#FBB040"/>
<path d="M72.9135 24.5138C72.1485 24.939 71.5857 25.5817 71.7484 26.3957C71.8402 26.8561 72.1285 27.253 72.4473 27.5976C73.5464 28.786 75.0576 29.5148 76.5972 30.0155C77.1774 30.2043 77.7798 30.3658 78.3891 30.3335C78.9983 30.3012 79.6225 30.0467 79.9725 29.5467C80.3639 28.9879 80.3461 28.2348 80.1737 27.5747C79.9097 26.5642 79.2311 25.9633 78.3963 25.3823C77.4544 24.7269 76.4566 24.0505 75.3147 23.9397C74.6666 23.8769 73.6866 24.0843 72.9135 24.5138Z" fill="#FCBC68"/>
<path d="M52.0465 81.1701C44.8666 69.2957 44.2167 59.4772 44.2167 59.4772C42.672 39.9596 51.3918 28.6299 57.9436 22.967C40.5755 27.4897 35.7608 43.5063 35.1425 52.2309C34.4177 62.4597 39.7335 70.4333 44.1633 78.4069C48.5931 86.3806 50.2038 97.0524 50.8886 100.918C51.5734 104.784 55.0769 104.664 55.0769 104.664H55.1357C55.5061 95.2863 54.9535 85.9775 52.0465 81.1701Z" fill="#FCBC68"/>
<path d="M47.8679 69.3497L40.5649 71.9894C41.2715 73.293 42.0021 74.5812 42.7297 75.863C46.421 73.029 47.8679 69.3497 47.8679 69.3497Z" fill="#E29A3B"/>
<path d="M118.243 44.6467H71.811V91.079H118.243V44.6467Z" fill="white"/>
<path d="M98.7478 52.2304C98.5939 50.058 98.1799 47.4335 97.3768 44.6467H71.811V91.079H84.9918C86.0329 86.9618 87.5343 82.3537 89.7274 78.4061C94.1572 70.4328 99.4729 62.4592 98.7478 52.2304Z" fill="#DEEEFC"/>
<path d="M97.3787 44.6467C97.3787 44.6467 102.617 56.8806 93.1508 72.3137C93.1508 72.3137 89.0333 79.7187 86.6753 85.399" stroke="#244E80" stroke-width="0.343641" stroke-miterlimit="10" stroke-linejoin="round"/>
<path d="M100.633 55.2089L88.959 83.3609" stroke="#244E80" stroke-width="0.343641" stroke-miterlimit="10" stroke-linecap="round" stroke-linejoin="round"/>
<path d="M101.629 54.7973C101.468 55.1858 101.023 55.3703 100.634 55.209C100.246 55.0478 100.061 54.6023 100.222 54.2138C100.384 53.8253 100.829 53.6408 101.218 53.802C101.606 53.9633 101.791 54.4091 101.629 54.7973Z" fill="white" stroke="#244E80" stroke-width="0.343641" stroke-miterlimit="10" stroke-linecap="round" stroke-linejoin="round"/>
<path d="M89.3721 84.3557C89.2109 84.7442 88.7653 84.9287 88.3768 84.7675C87.9883 84.6062 87.8039 84.1607 87.9651 83.7722C88.1263 83.3837 88.5718 83.1992 88.9603 83.3605C89.3488 83.5217 89.5333 83.9672 89.3721 84.3557Z" fill="white" stroke="#244E80" stroke-width="0.343641" stroke-miterlimit="10" stroke-linecap="round" stroke-linejoin="round"/>
<path d="M96.0184 68.8815L94.3882 68.0352L93.5419 69.6655L95.1722 70.5117L96.0184 68.8815Z" fill="white" stroke="#244E80" stroke-width="0.343641" stroke-miterlimit="10" stroke-linejoin="round"/>
<path d="M96.5623 69.5369C96.3949 69.4745 96.2638 69.6887 96.3964 69.8093L99.2899 72.4414C99.4075 72.5485 99.4162 72.7307 99.3091 72.8487C99.202 72.9664 99.0197 72.9751 98.9017 72.868L96.0086 70.2363C95.8764 70.1161 95.6752 70.2664 95.7533 70.4272L97.8175 74.6766C97.8386 74.7198 97.8778 74.7517 97.9243 74.763L100.669 75.4471C100.727 75.4616 100.788 75.4431 100.829 75.3988L101.373 74.8008L101.447 74.7187L101.991 74.1207C102.032 74.0764 102.044 74.0139 102.024 73.9573L101.084 71.2892C101.068 71.2439 101.033 71.2079 100.988 71.1912L96.5623 69.5369Z" fill="#244E80"/>
<path d="M102.493 74.2219L100.967 75.8998L101.741 76.6042L103.267 74.9263L102.493 74.2219Z" fill="#244E80"/>
<path d="M116.719 91.079H72.8291" stroke="#244E80" stroke-width="0.343641" stroke-miterlimit="10" stroke-dasharray="0.95 0.95"/>
<path d="M72.3259 91.079H71.811V90.5641" stroke="#244E80" stroke-width="0.343641" stroke-miterlimit="10"/>
<path d="M71.811 89.5559V45.6661" stroke="#244E80" stroke-width="0.343641" stroke-miterlimit="10" stroke-dasharray="0.95 0.95"/>
<path d="M71.811 45.1613V44.6464H72.3259" stroke="#244E80" stroke-width="0.343641" stroke-miterlimit="10"/>
<path d="M73.3345 44.6464H117.224" stroke="#244E80" stroke-width="0.343641" stroke-miterlimit="10" stroke-dasharray="0.95 0.95"/>
<path d="M60.8459 104.591C61.3165 97.6234 61.5652 93.9397 61.9334 88.4904C62.4987 80.1184 62.8219 70.9012 57.6677 64.2797C57.3533 63.876 56.984 63.4628 56.4844 63.3538C55.459 63.1298 54.6754 64.2521 54.3142 65.2376C53.5546 67.3094 53.2793 69.7396 54.4013 71.6397C55.3472 73.2417 57.1151 74.1789 58.8866 74.7475C63.0586 76.0866 67.7386 75.7663 71.6891 73.871" stroke="#244E80" stroke-width="0.343641" stroke-miterlimit="10" stroke-linejoin="round"/>
<path d="M82.5236 21.7458H52.0474" stroke="#244E80" stroke-width="0.343641" stroke-miterlimit="10" stroke-linecap="round" stroke-linejoin="round"/>
<path d="M83.2863 22.5071C82.8658 22.5071 82.5249 22.1661 82.5249 21.7457C82.5249 21.3252 82.8658 20.9843 83.2863 20.9843C83.7068 20.9843 84.0477 21.3252 84.0477 21.7457C84.0477 22.1661 83.7068 22.5071 83.2863 22.5071Z" fill="white" stroke="#244E80" stroke-width="0.343641" stroke-miterlimit="10" stroke-linecap="round" stroke-linejoin="round"/>
<path d="M51.2853 22.5071C50.8649 22.5071 50.5239 22.1661 50.5239 21.7457C50.5239 21.3252 50.8649 20.9843 51.2853 20.9843C51.7058 20.9843 52.0468 21.3252 52.0468 21.7457C52.0468 22.1661 51.7058 22.5071 51.2853 22.5071Z" fill="white" stroke="#244E80" stroke-width="0.343641" stroke-miterlimit="10" stroke-linecap="round" stroke-linejoin="round"/>
<path d="M43.7729 31.3337C43.7729 31.3337 50.8109 22.3238 65.8025 21.7447C65.8025 21.7447 80.1161 21.0181 89.8926 31.0956" stroke="#244E80" stroke-width="0.343641" stroke-miterlimit="10" stroke-linecap="round" stroke-linejoin="round"/>
<path d="M43.0664 122.032L43.5007 123.041C43.5007 123.041 47.2177 123.251 50.6998 120.102L49.2264 119.994L43.0664 122.032Z" fill="#171C27"/>
<path d="M26.8111 92.6963C26.8111 92.6963 24.6002 108.45 19.2612 119.843C19.2612 119.843 22.3646 121.683 25.3733 121.508C25.3733 121.508 31.1865 108.976 33.2899 93.4642L26.8111 92.6963Z" fill="#062538"/>
<path d="M23.8313 87.161C23.8313 87.161 23.6556 92.3508 25.9144 93.7854C28.1732 95.22 40.325 113.304 43.11 121.984C43.11 121.984 46.7388 122.224 49.2703 119.946C49.2703 119.946 41.5066 102.155 35.0932 92.6964C35.0932 92.6964 36.6559 89.6435 36.4744 86.661L23.8313 87.161Z" fill="#0A3759"/>
<path d="M19.2621 119.842L18.7759 120.661C18.7759 120.661 22.0463 122.811 26.1341 122.478L25.3745 121.507C25.3745 121.507 20.566 120.385 19.2621 119.842Z" fill="#171C27"/>
<path d="M35.6532 73.1499L36.4745 86.6601C36.4745 86.6601 33.6841 88.7225 29.3549 88.8183C25.0257 88.9138 23.8314 87.1608 23.8314 87.1608C23.8314 87.1608 22.748 73.9433 22.854 73.7962C22.96 73.6492 22.866 69.2695 29.1526 69.2949C35.439 69.3192 35.6532 73.1499 35.6532 73.1499Z" fill="#2481D3"/>
<path d="M35.599 72.8238C31.6641 73.1066 25.7735 73.6055 24.7188 74.1186C24.7188 74.1186 29.8609 77.9133 35.9254 77.616L35.6538 73.1499C35.6538 73.1499 35.6462 73.0257 35.599 72.8238Z" fill="#1364A0"/>
<path d="M27.2095 65.7387L27.724 69.4474L29.6488 70.7665L31.168 69.5247L30.8586 67.2942L27.2095 65.7387Z" fill="#EEB399"/>
<path d="M27.9302 67.5446L30.9693 68.1042L31.1342 69.2915C29.4824 69.2998 27.9302 67.5446 27.9302 67.5446Z" fill="#CC957F"/>
<path d="M30.2961 68.7571L31.3549 68.61C32.7949 68.4103 33.8098 67.0687 33.6101 65.6283L33.0879 61.8637C32.8882 60.4236 31.5466 59.4088 30.1062 59.6085L29.0474 59.7555C27.6073 59.9552 26.5925 61.2969 26.7922 62.7369L27.3143 66.5015C27.5144 67.9419 28.856 68.9568 30.2961 68.7571Z" fill="#EEB399"/>
<path d="M27.7598 62.3894C28.0953 62.514 28.5023 62.4868 28.7739 62.2544C29.0458 62.022 29.1232 61.5667 28.889 61.2958C29.1929 61.4033 29.5237 61.4795 29.8363 61.4007C30.1489 61.3219 30.4314 61.0467 30.4231 60.7246C30.5992 60.8445 30.7836 60.9676 30.9946 60.9962C31.2056 61.0249 31.4499 60.9265 31.516 60.7243C31.7488 60.9033 32.0403 61.0046 32.3337 61.0086C32.5044 61.0108 32.683 60.9774 32.8152 60.8692C32.943 60.7642 33.0112 60.6023 33.0436 60.44C33.142 59.9454 32.9219 59.4022 32.5073 59.1161C32.4031 59.0439 32.2832 58.9861 32.1561 58.9847C32.0294 58.9832 31.8958 59.05 31.8482 59.1673C31.5861 58.7392 31.1366 58.4139 30.6369 58.3663C30.1373 58.3184 29.605 58.5809 29.3941 59.0362C29.2928 58.8547 29.08 58.7559 28.8719 58.745C28.6642 58.7345 28.4598 58.7995 28.2681 58.8797C28.0143 58.9854 27.767 59.1227 27.5822 59.3264C27.3977 59.5304 27.2823 59.8096 27.3244 60.0816C27.1163 60.0053 26.8905 60.1266 26.7155 60.2624C26.4613 60.4599 26.2311 60.7145 26.1578 61.0278C26.0844 61.3412 26.2126 61.7174 26.5078 61.8455C26.2228 62.0452 26.0514 62.3974 26.0703 62.7453C26.0891 63.0931 26.2976 63.4246 26.6026 63.5924C26.1919 63.815 26.0979 64.4566 26.4275 64.7877C26.2271 64.8759 26.1342 65.1316 26.1915 65.3429C26.2489 65.5542 26.4286 65.7172 26.6312 65.8004C26.8262 65.8806 27.0622 65.893 27.2398 65.779C27.417 65.6653 27.4943 65.4202 27.3876 65.2343C27.405 65.2648 27.7721 64.8353 27.7906 64.7681C27.8444 64.5713 27.8226 64.3055 27.8396 64.0975C27.8872 63.5274 27.8603 62.9519 27.7598 62.3894Z" fill="#171C27"/>
<path d="M26.4142 65.414C26.4734 65.8403 26.8667 66.1377 27.2929 66.0785C27.7192 66.0193 28.0166 65.6261 27.9574 65.1998C27.8982 64.7735 27.505 64.4762 27.0787 64.5353C26.6524 64.5945 26.3551 64.9878 26.4142 65.414Z" fill="#EEB399"/>
<path d="M28.3176 65.8284C28.4984 66.0532 28.713 66.2478 28.9276 66.4406C29.1516 66.6422 29.3894 66.8498 29.6828 66.9185C30.0942 67.0151 30.5194 66.8157 30.856 66.5601C31.1926 66.3045 31.4856 65.9868 31.8578 65.786C32.3523 65.5195 32.9492 65.4868 33.4982 65.6062C33.638 65.6367 33.7818 65.6799 33.8842 65.7798C33.9993 65.8924 34.0433 66.0572 34.0763 66.2148C34.1761 66.6915 34.2212 67.1795 34.2103 67.6661C34.203 67.9874 34.1692 68.3178 34.0207 68.6029C33.8236 68.9812 33.4398 69.2387 33.0302 69.3589C32.6206 69.479 32.1849 69.4754 31.7601 69.4347C30.5964 69.324 29.4014 68.9021 28.6647 67.9943C28.3796 67.6432 28.1749 67.2344 27.9868 66.8226C27.7123 66.2213 27.4679 65.6062 27.2559 64.9803C27.1669 64.7181 27.0623 64.3728 27.2087 64.1106C27.3662 63.8281 27.5964 63.8514 27.6967 64.139C27.7947 64.4204 27.7729 64.7413 27.8757 65.0307C27.9773 65.3198 28.1262 65.5906 28.3176 65.8284Z" fill="#171C27"/>
<path d="M44.3087 66.6853C36.4346 73.916 27.5942 70.4822 27.2003 70.3239C26.0634 69.8606 24.7653 70.4002 24.2958 71.5348C23.8253 72.6724 24.3659 73.9759 25.5039 74.4469C25.7432 74.5456 28.7071 75.7333 32.8679 75.7333C37.0057 75.7333 42.3269 74.558 47.3239 69.9692C46.6732 67.7935 44.3087 66.6853 44.3087 66.6853Z" fill="#EEB399"/>
<path d="M31.3105 71.0963C28.9322 70.8636 27.3408 70.2463 27.1745 70.1795C25.9737 69.6901 24.6027 70.2601 24.1067 71.4587C23.6096 72.6606 24.1807 74.0374 25.3826 74.5345C25.5859 74.6184 27.6541 75.4459 30.7434 75.7665C31.4184 74.1438 31.3588 71.8977 31.3105 71.0963Z" fill="#2481D3"/>
<path d="M31.2209 71.0884C31.2209 71.0884 29.0594 70.9069 27.1753 70.1803" stroke="#1364A0" stroke-width="0.0974223" stroke-miterlimit="10" stroke-linecap="round" stroke-linejoin="round"/>
<path d="M46.0769 65.119C46.2283 65.0064 46.3917 64.8939 46.5794 64.8736C46.7671 64.8532 46.9821 64.9603 47.0159 65.1459C47.0674 65.4309 46.7058 65.6106 46.6034 65.8819C46.5268 66.0852 46.6103 66.318 46.745 66.4886C46.8797 66.6589 47.0609 66.786 47.2185 66.9352C47.9744 67.6527 48.0906 68.945 47.4748 69.7855C47.3586 69.9439 47.2065 70.0942 47.013 70.1265C46.7682 70.1668 46.5391 70.0103 46.3405 69.8618C45.8075 69.4627 45.269 69.059 44.8394 68.5503C44.4524 68.092 43.8722 67.2733 44.2955 66.7163C44.7567 66.1095 45.4694 65.57 46.0769 65.119Z" fill="#EEB399"/>
<path d="M103.217 25.6103L100.444 27.4962L104.756 28.6396V32.2844L106.861 29.7176L111.636 30.9315L116.359 20.4764L103.217 25.6103Z" fill="#A7A9AC"/>
<path d="M116.64 18.4568L100.251 25.7743L105.031 27.8109L116.64 18.4568Z" fill="white"/>
<path d="M102.774 33.2782C101.897 34.0617 100.841 34.6456 99.7069 34.9597C98.5079 35.2919 97.1641 35.3108 96.0785 34.7026C94.9932 34.0944 94.2753 32.7491 94.6537 31.564C95.032 30.3788 96.6852 29.7242 97.6409 30.5204C98.4008 31.1537 98.4342 32.373 97.9557 33.239C97.4775 34.1049 96.6144 34.6841 95.748 35.1619C93.2703 36.5286 90.4432 37.3478 87.6179 37.1855C85.135 37.0428 82.6631 36.0947 80.8545 34.4052" stroke="#244E80" stroke-width="0.292232" stroke-linecap="round" stroke-linejoin="round" stroke-dasharray="0.97 0.97"/>
<path d="M80.4901 34.0457C80.3717 33.9219 80.2566 33.7948 80.1455 33.6641" stroke="#244E80" stroke-width="0.292232" stroke-linecap="round" stroke-linejoin="round"/>
<path d="M48.5599 52.9085C48.5599 49.7034 45.9616 47.1051 42.7565 47.1051C39.5515 47.1051 36.9531 49.7034 36.9531 52.9085C36.9531 55.3899 38.5137 57.5017 40.7047 58.3317L39.9429 60.3825L42.9079 58.7043C46.0426 58.6233 48.5599 56.0624 48.5599 52.9085Z" fill="white"/>
<path d="M43.8008 51.3555L40.9414 52.7887L42.636 53.0327L43.2899 54.4186L43.8008 51.3555Z" fill="#244E80"/>
<path d="M45.3343 55.3285H40.1758V50.1699H45.3343V55.3285ZM40.321 55.1832H45.1894V50.3148H40.321V55.1832Z" fill="#244E80"/>
<path d="M45.2618 50.5785C45.4479 50.5785 45.5987 50.4276 45.5987 50.2415C45.5987 50.0554 45.4479 49.9045 45.2618 49.9045C45.0757 49.9045 44.9248 50.0554 44.9248 50.2415C44.9248 50.4276 45.0757 50.5785 45.2618 50.5785Z" fill="#244E80"/>
<path d="M40.2491 50.5784C40.4352 50.5784 40.586 50.4275 40.586 50.2414C40.586 50.0553 40.4352 49.9045 40.2491 49.9045C40.063 49.9045 39.9121 50.0553 39.9121 50.2414C39.9121 50.4275 40.063 50.5784 40.2491 50.5784Z" fill="#244E80"/>
<path d="M40.2491 55.5924C40.4352 55.5924 40.586 55.4415 40.586 55.2554C40.586 55.0693 40.4352 54.9185 40.2491 54.9185C40.063 54.9185 39.9121 55.0693 39.9121 55.2554C39.9121 55.4415 40.063 55.5924 40.2491 55.5924Z" fill="#244E80"/>
<path d="M45.2618 55.5924C45.4479 55.5924 45.5987 55.4415 45.5987 55.2554C45.5987 55.0693 45.4479 54.9185 45.2618 54.9185C45.0757 54.9185 44.9248 55.0693 44.9248 55.2554C44.9248 55.4415 45.0757 55.5924 45.2618 55.5924Z" fill="#244E80"/>
<path d="M59.2304 123.987C59.2304 123.987 55.5381 124.011 55.6772 120.598C55.6772 120.598 55.5465 117.348 59.4944 117.509C59.4944 117.509 60.1876 122.151 59.2304 123.987Z" fill="#FF5252"/>
<path d="M63.2786 117.663L59.4947 117.509C59.4947 117.509 57.1596 120.645 59.2307 123.987L63.1032 124.145L63.2786 117.663Z" fill="#674A6C"/>
<path d="M115.652 119.795L63.2786 117.662C63.2786 117.662 60.7191 121.023 63.0146 124.14L115.388 126.273L121.709 123.286L115.652 119.795Z" fill="#FBB040"/>
<path d="M62.4627 119.204L116.437 121.402L116.342 123.725L62.064 121.514C62.0233 120.647 62.2179 119.848 62.4627 119.204Z" fill="#EFA33F"/>
<path d="M63.0147 124.142C62.364 123.258 62.104 122.355 62.0645 121.514L116.343 123.725C117.608 122.962 119.71 123.218 121.175 123.54L115.388 126.275L63.0147 124.142Z" fill="#DB9037"/>
<path d="M59.941 117.729C59.941 117.729 58.0515 120.427 59.6302 123.77C59.6302 123.77 58.3568 120.68 59.941 117.729Z" fill="#36253A"/>
<path d="M60.6871 117.76C60.6871 117.76 58.7976 120.458 60.3763 123.801C60.3763 123.801 59.1026 120.712 60.6871 117.76Z" fill="#36253A"/>
<path d="M61.4303 117.79C61.4303 117.79 59.5407 120.488 61.1195 123.831C61.1195 123.831 59.8457 120.741 61.4303 117.79Z" fill="#36253A"/>
<path d="M62.1764 117.819C62.1764 117.819 60.2868 120.518 61.8656 123.861C61.8656 123.861 60.5922 120.771 62.1764 117.819Z" fill="#36253A"/>
<path d="M102.431 122.34L104.237 119.332L78.7787 118.295L78.001 124.752L100.054 125.65C101.291 123.875 102.431 122.34 102.431 122.34Z" fill="#D1D3D4"/>
<path d="M83.9409 132.38V133.482C83.9409 133.482 79.5518 134.336 75.5806 133.482L77.3895 132.38H83.9409Z" fill="#171C27"/>
<path d="M99.4825 114.869L99.668 125.127L111.798 125.802C111.798 125.802 112.591 129.612 111.798 131.305H99.668C99.668 131.305 93.4409 132.42 93.0963 126.444C92.7521 120.467 92.7227 116.495 92.7227 116.495C92.7227 116.495 96.9546 114.358 99.4825 114.869Z" fill="#A05E47"/>
<path d="M99.6663 125.03L99.5512 118.672L92.7769 119.102C92.8186 120.577 92.892 122.617 93.0205 125.063C94.4529 125.356 96.9198 125.645 99.6663 125.03Z" fill="#82493A"/>
<path d="M99.6758 113.36C99.6758 113.36 101.094 117.903 98.4507 118.866C95.807 119.828 83.3912 118.866 83.3912 118.866L83.941 132.381C83.941 132.381 80.4131 133.481 77.3892 132.381L76.9767 116.483C76.9767 116.483 75.9997 111.933 84.8571 112.678L99.6758 113.36Z" fill="#A05E47"/>
<path d="M80.943 113.139C80.943 113.139 80.5414 117.628 83.513 121.889L83.3899 118.865C83.3899 118.865 85.9955 119.066 89.0727 119.193C89.0027 118.224 88.9057 117.534 88.9057 117.534L80.943 113.139Z" fill="#82493A"/>
<path d="M80.9626 112.679C80.9626 112.679 80.1289 121.476 89.8835 122.48C98.9312 123.411 98.725 123.954 101.95 123.272C102.37 123.184 102.606 122.733 102.433 122.34C101.726 120.74 100.133 116.85 99.6763 113.361L88.3008 112.679C88.3008 112.679 84.2065 112.441 80.9626 112.679Z" fill="#0D314C"/>
<path d="M80.8824 87.4304C80.7811 87.291 80.67 87.1483 80.5121 87.0797C80.3541 87.0107 80.1377 87.0452 80.0578 87.1977C79.9351 87.4315 80.2009 87.6872 80.2158 87.9508C80.2271 88.1487 80.0905 88.3287 79.9268 88.4402C79.763 88.5517 79.5709 88.6127 79.3927 88.6998C78.5386 89.1178 78.0848 90.2107 78.3912 91.1108C78.449 91.2804 78.5405 91.4528 78.7002 91.5335C78.9021 91.6355 79.1443 91.5618 79.3578 91.4866C79.9308 91.2847 80.5095 91.0807 81.0226 90.755C81.4848 90.4616 82.2132 89.9075 81.9968 89.3073C81.7611 88.6534 81.2877 87.9889 80.8824 87.4304Z" fill="#A05E47"/>
<path d="M98.3039 109.813C98.3387 109.813 98.3732 109.812 98.4081 109.81C100.163 109.724 101.491 109.171 102.353 108.163C103.129 107.258 103.324 106.173 103.249 105.459C103.241 105.384 103.229 105.31 103.213 105.236C102.436 101.636 99.5213 97.0058 99.3972 96.8108C98.7777 95.8311 97.4804 95.5389 96.4996 96.1601C95.52 96.7803 95.2281 98.078 95.8479 99.058C96.5189 100.12 98.2665 103.171 98.9487 105.505C98.7886 105.551 98.5453 105.597 98.2037 105.614C97.045 105.671 96.1514 106.656 96.2077 107.815C96.2625 108.939 97.191 109.813 98.3039 109.813Z" fill="#E54C64"/>
<path d="M98.2045 105.614C97.0459 105.671 96.1523 106.656 96.2086 107.815C96.2634 108.938 97.1918 109.813 98.3047 109.813C98.3396 109.813 98.3741 109.812 98.4089 109.811C99.7401 109.746 100.824 109.41 101.647 108.813C99.7437 105.771 99.2695 99.8718 99.2695 99.8718L96.8284 100.737C97.5898 102.124 98.5001 103.969 98.9492 105.505C98.7895 105.552 98.5462 105.598 98.2045 105.614Z" fill="#CC3754"/>
<path d="M85.4685 95.6315L91.7388 95.4398C92.8956 95.3908 93.8673 96.3156 93.9025 97.4753C93.9377 98.6347 93.0263 99.6034 91.867 99.639L84.3007 99.8703C84.2789 99.871 84.2579 99.8714 84.2361 99.8714C83.4667 99.8714 82.7565 99.4498 82.3887 98.7694L78.3579 91.311C79.5612 90.5282 82.0535 89.3136 82.0535 89.3136L85.4685 95.6315Z" fill="#E54C64"/>
<path d="M96.6701 91.6967L96.4784 95.3662L94.7075 96.8179L93.1172 95.7311L93.2323 93.5242L96.6701 91.6967Z" fill="#A05E47"/>
<path d="M93.8528 94.9035L92.907 94.8542C91.4538 94.7783 90.3271 93.5278 90.403 92.0746L90.5922 88.4513C90.6681 86.9985 91.9186 85.8718 93.3717 85.9474L94.3176 85.9967C95.7707 86.0726 96.8974 87.3231 96.8215 88.7763L96.6323 92.3996C96.5565 93.8524 95.3056 94.9794 93.8528 94.9035Z" fill="#A05E47"/>
<path d="M91.6771 87.6105C91.3311 87.6373 91.2156 88.1566 91.4433 88.4187C91.6709 88.6809 92.0671 88.7165 92.4091 88.658C92.3125 88.8454 92.213 89.0599 92.2813 89.2593C92.3496 89.459 92.6811 89.5425 92.762 89.3479C92.697 89.7774 92.6324 90.2073 92.5674 90.6369C92.5373 90.8377 92.5079 91.0497 92.5834 91.2382C92.6589 91.4266 92.8793 91.5733 93.0663 91.4938C93.4904 91.3144 93.0852 90.484 93.4922 90.2683C93.5641 90.2302 93.6484 90.2233 93.7297 90.2288C94.1774 90.2593 94.5528 90.7055 94.5056 91.1521C94.4584 91.5984 93.9984 91.9567 93.5539 91.8932C93.4142 92.0326 93.3956 92.2766 93.5126 92.4357C93.6295 92.5947 93.8677 92.6499 94.0427 92.558C93.9221 92.9048 94.1091 93.3289 94.4464 93.4734C94.7838 93.6179 95.2202 93.4611 95.388 93.135C95.7031 93.5039 96.2205 93.6876 96.698 93.6005C97.1755 93.5133 97.5945 93.1586 97.7593 92.7025C98.345 92.7861 98.9765 92.6815 99.4427 92.3173C99.9089 91.9535 100.169 91.3039 99.9826 90.7425C100.531 90.5145 100.95 89.9978 101.059 89.4136C101.168 88.8294 100.964 88.1961 100.534 87.7858C101.421 86.6003 101.174 84.7227 100.009 83.8077C99.9347 82.7609 99.3127 81.6862 98.3058 81.3902C97.8741 81.2631 97.3131 81.3437 97.1221 81.7508C96.641 81.4327 96.0978 81.1571 95.5216 81.1702C94.9453 81.1833 94.3437 81.571 94.2638 82.1422C93.8764 81.8103 93.2805 81.7479 92.8325 81.9919C92.3844 82.2359 92.1139 82.7704 92.1822 83.2758C91.7396 83.103 91.2004 83.2126 90.8609 83.5448C90.521 83.8771 90.399 84.4134 90.5617 84.8596C90.5624 84.8618 90.1626 85.6167 90.1612 85.7964C90.1586 86.1352 90.31 86.4384 90.3874 86.7601C90.5156 87.2931 90.9531 88.3918 91.6771 87.6105Z" fill="#171C27"/>
<path d="M96.3698 95.1885C96.3698 95.1885 99.9314 95.1885 99.6609 99.0195C99.3904 102.851 98.8944 105.128 99.3454 107.613C99.7963 110.098 99.6758 113.36 99.6758 113.36C99.6758 113.36 92.3125 115.771 88.3003 113.131C88.3003 113.131 88.8863 100.676 89.0218 98.7606C89.1568 96.8453 90.9574 95.1692 93.8005 95.1885C96.6436 95.2077 96.6436 95.2077 96.6436 95.2077" fill="#E54C64"/>
<path d="M93.5632 113.206C97.131 113.206 99.6869 111.927 99.7232 111.908C99.7577 111.891 99.7711 111.848 99.7537 111.814C99.7359 111.78 99.6927 111.766 99.6596 111.784C99.6077 111.81 94.4012 114.412 88.4751 112.128C88.4388 112.114 88.3985 112.132 88.3847 112.167C88.3705 112.204 88.3887 112.244 88.425 112.258C90.247 112.961 92.0022 113.206 93.5632 113.206Z" fill="#0D314C"/>
<path d="M99.6204 110.104C99.6215 110.104 99.6222 110.104 99.6236 110.104C99.6621 110.103 99.6923 110.07 99.6904 110.031C99.6356 108.793 99.4159 107.613 99.4138 107.601C99.0913 105.825 99.2522 104.19 99.4748 101.928C99.559 101.072 99.6545 100.103 99.7308 99.0248C99.7333 98.9863 99.7042 98.9529 99.6658 98.95C99.6345 98.9486 99.5939 98.9762 99.591 99.015C99.5151 100.091 99.4196 101.059 99.3357 101.914C99.1204 104.102 98.9501 105.83 99.2762 107.626C99.2787 107.638 99.4966 108.809 99.5507 110.037C99.5517 110.075 99.5826 110.104 99.6204 110.104Z" fill="#0D314C"/>
<path d="M99.3401 113.423C99.3786 113.423 99.4102 113.391 99.4102 113.353V112.375C99.4102 112.337 99.379 112.305 99.3401 112.305C99.3016 112.305 99.27 112.336 99.27 112.375V113.353C99.27 113.391 99.3016 113.423 99.3401 113.423Z" fill="#0D314C"/>
<path d="M98.8777 113.369C98.9162 113.369 98.9478 113.337 98.9478 113.299V112.606C98.9478 112.568 98.9165 112.536 98.8777 112.536C98.8392 112.536 98.8076 112.567 98.8076 112.606V113.299C98.8076 113.338 98.8388 113.369 98.8777 113.369Z" fill="#0D314C"/>
<path d="M98.3811 113.617C98.4196 113.617 98.4512 113.586 98.4512 113.547V112.748C98.4512 112.709 98.42 112.678 98.3811 112.678C98.3426 112.678 98.311 112.709 98.311 112.748V113.547C98.311 113.586 98.3426 113.617 98.3811 113.617Z" fill="#0D314C"/>
<path d="M97.7942 113.723C97.8327 113.723 97.8643 113.692 97.8643 113.653V113.013C97.8643 112.975 97.833 112.943 97.7942 112.943C97.7557 112.943 97.7241 112.974 97.7241 113.013V113.653C97.7241 113.692 97.7557 113.723 97.7942 113.723Z" fill="#0D314C"/>
<path d="M97.2634 113.849C97.3019 113.849 97.3335 113.818 97.3335 113.779V113.067C97.3335 113.029 97.3023 112.997 97.2634 112.997C97.2249 112.997 97.1934 113.028 97.1934 113.067V113.779C97.1937 113.818 97.2249 113.849 97.2634 113.849Z" fill="#0D314C"/>
<path d="M96.7473 113.977C96.7858 113.977 96.8174 113.946 96.8174 113.907V113.192C96.8174 113.154 96.7862 113.122 96.7473 113.122C96.7088 113.122 96.6772 113.153 96.6772 113.192V113.907C96.6776 113.946 96.7088 113.977 96.7473 113.977Z" fill="#0D314C"/>
<path d="M96.1458 113.973C96.1842 113.973 96.2158 113.942 96.2158 113.903V113.226C96.2158 113.188 96.1846 113.156 96.1458 113.156C96.1073 113.156 96.0757 113.188 96.0757 113.226V113.903C96.0757 113.942 96.1073 113.973 96.1458 113.973Z" fill="#0D314C"/>
<path d="M95.6296 114.007C95.6681 114.007 95.6997 113.976 95.6997 113.937V113.351C95.6997 113.313 95.6685 113.281 95.6296 113.281C95.5912 113.281 95.5596 113.312 95.5596 113.351V113.937C95.5596 113.976 95.5912 114.007 95.6296 114.007Z" fill="#0D314C"/>
<path d="M95.1702 114.189C95.2087 114.189 95.2402 114.158 95.2402 114.119V113.422C95.2402 113.383 95.209 113.352 95.1702 113.352C95.1317 113.352 95.1001 113.383 95.1001 113.422V114.119C95.1001 114.158 95.1317 114.189 95.1702 114.189Z" fill="#0D314C"/>
<path d="M94.5486 114.061C94.5871 114.061 94.6187 114.03 94.6187 113.991V113.547C94.6187 113.508 94.5875 113.477 94.5486 113.477C94.5101 113.477 94.4785 113.508 94.4785 113.547V113.991C94.4785 114.03 94.5101 114.061 94.5486 114.061Z" fill="#0D314C"/>
<path d="M94.1233 114.203C94.1618 114.203 94.1934 114.172 94.1934 114.133V113.582C94.1934 113.544 94.1622 113.512 94.1233 113.512C94.0848 113.512 94.0532 113.543 94.0532 113.582V114.133C94.0532 114.172 94.0845 114.203 94.1233 114.203Z" fill="#0D314C"/>
<path d="M93.7146 114.26C93.7531 114.26 93.7847 114.229 93.7847 114.19V113.494C93.7847 113.456 93.7531 113.424 93.7146 113.424C93.6761 113.424 93.6445 113.456 93.6445 113.494V114.19C93.6449 114.228 93.6761 114.26 93.7146 114.26Z" fill="#0D314C"/>
<path d="M93.2693 114.281C93.3078 114.281 93.3394 114.25 93.3394 114.211V113.493C93.3394 113.454 93.3082 113.423 93.2693 113.423C93.2308 113.423 93.1992 113.454 93.1992 113.493V114.211C93.1992 114.25 93.2305 114.281 93.2693 114.281Z" fill="#0D314C"/>
<path d="M92.7898 114.133C92.8283 114.133 92.8599 114.102 92.8599 114.063V113.493C92.8599 113.454 92.8287 113.423 92.7898 113.423C92.7513 113.423 92.7197 113.454 92.7197 113.493V114.063C92.7201 114.102 92.7513 114.133 92.7898 114.133Z" fill="#0D314C"/>
<path d="M92.3303 114.06C92.3688 114.06 92.4004 114.029 92.4004 113.99V113.493C92.4004 113.454 92.3692 113.423 92.3303 113.423C92.2918 113.423 92.2603 113.454 92.2603 113.493V113.99C92.2606 114.029 92.2918 114.06 92.3303 114.06Z" fill="#0D314C"/>
<path d="M91.7797 114.19C91.8185 114.19 91.8498 114.159 91.8498 114.12V113.44C91.8498 113.402 91.8185 113.37 91.7797 113.37C91.7412 113.37 91.71 113.401 91.71 113.44V114.12C91.71 114.159 91.7412 114.19 91.7797 114.19Z" fill="#0D314C"/>
<path d="M91.2669 114.07C91.3053 114.07 91.3369 114.039 91.3369 114V113.262C91.3369 113.223 91.3057 113.192 91.2669 113.192C91.2284 113.192 91.1968 113.223 91.1968 113.262V114C91.1968 114.039 91.228 114.07 91.2669 114.07Z" fill="#0D314C"/>
<path d="M90.8753 113.951C90.9137 113.951 90.9453 113.92 90.9453 113.881V113.209C90.9453 113.171 90.9141 113.139 90.8753 113.139C90.8368 113.139 90.8052 113.17 90.8052 113.209V113.881C90.8052 113.92 90.8364 113.951 90.8753 113.951Z" fill="#0D314C"/>
<path d="M90.3787 113.885C90.4172 113.885 90.4487 113.854 90.4487 113.815V113.086C90.4487 113.047 90.4175 113.016 90.3787 113.016C90.3402 113.016 90.3086 113.047 90.3086 113.086V113.815C90.309 113.854 90.3402 113.885 90.3787 113.885Z" fill="#0D314C"/>
<path d="M89.9534 113.779C89.9919 113.779 90.0235 113.747 90.0235 113.709V112.997C90.0235 112.958 89.9922 112.926 89.9534 112.926C89.9149 112.926 89.8833 112.958 89.8833 112.997V113.709C89.8837 113.747 89.9149 113.779 89.9534 113.779Z" fill="#0D314C"/>
<path d="M89.4568 113.652C89.4953 113.652 89.5269 113.621 89.5269 113.582V112.942C89.5269 112.904 89.4956 112.872 89.4568 112.872C89.4183 112.872 89.3867 112.903 89.3867 112.942V113.582C89.3867 113.621 89.4183 113.652 89.4568 113.652Z" fill="#0D314C"/>
<path d="M88.9773 113.386C89.0158 113.386 89.0474 113.355 89.0474 113.316V112.659C89.0474 112.62 89.0162 112.589 88.9773 112.589C88.9385 112.589 88.9072 112.62 88.9072 112.659V113.316C88.9072 113.355 88.9385 113.386 88.9773 113.386Z" fill="#0D314C"/>
<path d="M88.6228 113.263C88.6613 113.263 88.6929 113.232 88.6929 113.193V112.5C88.6929 112.462 88.6617 112.43 88.6228 112.43C88.5843 112.43 88.5527 112.462 88.5527 112.5V113.193C88.5531 113.232 88.5843 113.263 88.6228 113.263Z" fill="#0D314C"/>
<path d="M99.0307 117.648C98.4196 118.199 97.6219 118.485 96.8453 118.756C94.8809 119.441 92.8864 120.116 90.8135 120.291" stroke="#074368" stroke-width="0.0974223" stroke-miterlimit="10" stroke-linecap="round" stroke-linejoin="round"/>
</svg>
